<svg viewBox="0 0 330 200" xmlns="http://www.w3.org/2000/svg"><g><g><g><g><g><line x1="72.29800224304199" y1="176.55199909210205" x2="67.29800224304199" y2="176.55199909210205" style="visibility: inherit;" fill="rgb(0, 0, 0)" stroke="rgb(204, 204, 204)" stroke-width="1px"></line><line x1="72.29800224304199" y1="154.4829992055893" x2="67.29800224304199" y2="154.4829992055893" style="visibility: inherit;" fill="rgb(0, 0, 0)" stroke="rgb(204, 204, 204)" stroke-width="1px"></line><line x1="72.29800224304199" y1="132.41399931907654" x2="67.29800224304199" y2="132.41399931907654" style="visibility: inherit;" fill="rgb(0, 0, 0)" stroke="rgb(204, 204, 204)" stroke-width="1px"></line><line x1="72.29800224304199" y1="110.34499943256378" x2="67.29800224304199" y2="110.34499943256378" style="visibility: inherit;" fill="rgb(0, 0, 0)" stroke="rgb(204, 204, 204)" stroke-width="1px"></line><line x1="72.29800224304199" y1="88.27599954605103" x2="67.29800224304199" y2="88.27599954605103" style="visibility: inherit;" fill="rgb(0, 0, 0)" stroke="rgb(204, 204, 204)" stroke-width="1px"></line><line x1="72.29800224304199" y1="66.20699965953827" x2="67.29800224304199" y2="66.20699965953827" style="visibility: inherit;" fill="rgb(0, 0, 0)" stroke="rgb(204, 204, 204)" stroke-width="1px"></line><line x1="72.29800224304199" y1="44.13799977302551" x2="67.29800224304199" y2="44.13799977302551" style="visibility: inherit;" fill="rgb(0, 0, 0)" stroke="rgb(204, 204, 204)" stroke-width="1px"></line><line x1="72.29800224304199" y1="22.068999886512756" x2="67.29800224304199" y2="22.068999886512756" style="visibility: inherit;" fill="rgb(0, 0, 0)" stroke="rgb(204, 204, 204)" stroke-width="1px"></line><line x1="72.29800224304199" y1="0" x2="67.29800224304199" y2="0" style="visibility: inherit;" fill="rgb(0, 0, 0)" stroke="rgb(204, 204, 204)" stroke-width="1px"></line></g><g transform="translate(62.29800224304199, 0)"><text style="text-anchor: end; visibility: hidden; font-family: Roboto, sans-serif; font-size: 12px; font-weight: 200;" x="0" y="176.55199909210205" dx="0em" dy="0.3em" fill="rgb(255, 255, 255)" stroke="none" stroke-width="1px">0</text><text style="text-anchor: end; visibility: inherit; font-family: Roboto, sans-serif; font-size: 12px; font-weight: 200;" x="0" y="154.4829992055893" dx="0em" dy="0.3em" fill="rgb(255, 255, 255)" stroke="none" stroke-width="1px">500</text><text style="text-anchor: end; visibility: hidden; font-family: Roboto, sans-serif; font-size: 12px; font-weight: 200;" x="0" y="132.41399931907654" dx="0em" dy="0.3em" fill="rgb(255, 255, 255)" stroke="none" stroke-width="1px">1e+3</text><text style="text-anchor: end; visibility: inherit; font-family: Roboto, sans-serif; font-size: 12px; font-weight: 200;" x="0" y="110.34499943256378" dx="0em" dy="0.3em" fill="rgb(255, 255, 255)" stroke="none" stroke-width="1px">1.5e+3</text><text style="text-anchor: end; visibility: hidden; font-family: Roboto, sans-serif; font-size: 12px; font-weight: 200;" x="0" y="88.27599954605103" dx="0em" dy="0.3em" fill="rgb(255, 255, 255)" stroke="none" stroke-width="1px">2e+3</text><text style="text-anchor: end; visibility: inherit; font-family: Roboto, sans-serif; font-size: 12px; font-weight: 200;" x="0" y="66.20699965953827" dx="0em" dy="0.3em" fill="rgb(255, 255, 255)" stroke="none" stroke-width="1px">2.5e+3</text><text style="text-anchor: end; visibility: hidden; font-family: Roboto, sans-serif; font-size: 12px; font-weight: 200;" x="0" y="44.13799977302551" dx="0em" dy="0.3em" fill="rgb(255, 255, 255)" stroke="none" stroke-width="1px">3e+3</text><text style="text-anchor: end; visibility: inherit; font-family: Roboto, sans-serif; font-size: 12px; font-weight: 200;" x="0" y="22.068999886512756" dx="0em" dy="0.3em" fill="rgb(255, 255, 255)" stroke="none" stroke-width="1px">3.5e+3</text><text style="text-anchor: end; visibility: hidden; font-family: Roboto, sans-serif; font-size: 12px; font-weight: 200;" x="0" y="0" dx="0em" dy="0.3em" fill="rgb(255, 255, 255)" stroke="none" stroke-width="1px">4e+3</text></g><line x1="72.29800224304199" y1="0" x2="72.29800224304199" y2="176.55199909210205" fill="rgb(0, 0, 0)" stroke="rgb(204, 204, 204)" stroke-width="1px"></line></g></g><g transform="translate(72, 0)" clip-path="url(#clip_0)"><clipPath id="clip_0"><rect width="257" height="176"></rect></clipPath><g><g><g><line x1="0" y1="0" x2="0" y2="176.55199909210205" fill="rgb(0, 0, 0)" stroke="rgb(189, 189, 189)" stroke-width="1px" opacity="0.25"></line><line x1="18.407285554068427" y1="0" x2="18.407285554068427" y2="176.55199909210205" fill="rgb(0, 0, 0)" stroke="rgb(189, 189, 189)" stroke-width="1px" opacity="0.25"></line><line x1="36.81457110813685" y1="0" x2="36.81457110813685" y2="176.55199909210205" fill="rgb(0, 0, 0)" stroke="rgb(189, 189, 189)" stroke-width="1px" opacity="0.25"></line><line x1="55.22185666220528" y1="0" x2="55.22185666220528" y2="176.55199909210205" fill="rgb(0, 0, 0)" stroke="rgb(189, 189, 189)" stroke-width="1px" opacity="0.25"></line><line x1="73.6291422162737" y1="0" x2="73.6291422162737" y2="176.55199909210205" fill="rgb(0, 0, 0)" stroke="rgb(189, 189, 189)" stroke-width="1px" opacity="0.25"></line><line x1="92.03642777034214" y1="0" x2="92.03642777034214" y2="176.55199909210205" fill="rgb(0, 0, 0)" stroke="rgb(189, 189, 189)" stroke-width="1px" opacity="0.25"></line><line x1="110.44371332441057" y1="0" x2="110.44371332441057" y2="176.55199909210205" fill="rgb(0, 0, 0)" stroke="rgb(189, 189, 189)" stroke-width="1px" opacity="0.25"></line><line x1="128.850998878479" y1="0" x2="128.850998878479" y2="176.55199909210205" fill="rgb(0, 0, 0)" stroke="rgb(189, 189, 189)" stroke-width="1px" opacity="0.25"></line><line x1="147.2582844325474" y1="0" x2="147.2582844325474" y2="176.55199909210205" fill="rgb(0, 0, 0)" stroke="rgb(189, 189, 189)" stroke-width="1px" opacity="0.25"></line><line x1="165.66556998661588" y1="0" x2="165.66556998661588" y2="176.55199909210205" fill="rgb(0, 0, 0)" stroke="rgb(189, 189, 189)" stroke-width="1px" opacity="0.25"></line><line x1="184.0728555406843" y1="0" x2="184.0728555406843" y2="176.55199909210205" fill="rgb(0, 0, 0)" stroke="rgb(189, 189, 189)" stroke-width="1px" opacity="0.25"></line><line x1="202.48014109475272" y1="0" x2="202.48014109475272" y2="176.55199909210205" fill="rgb(0, 0, 0)" stroke="rgb(189, 189, 189)" stroke-width="1px" opacity="0.25"></line><line x1="220.88742664882113" y1="0" x2="220.88742664882113" y2="176.55199909210205" fill="rgb(0, 0, 0)" stroke="rgb(189, 189, 189)" stroke-width="1px" opacity="0.25"></line><line x1="239.2947122028896" y1="0" x2="239.2947122028896" y2="176.55199909210205" fill="rgb(0, 0, 0)" stroke="rgb(189, 189, 189)" stroke-width="1px" opacity="0.25"></line><line x1="257.701997756958" y1="0" x2="257.701997756958" y2="176.55199909210205" fill="rgb(0, 0, 0)" stroke="rgb(189, 189, 189)" stroke-width="1px" opacity="0.25"></line></g><g><line x1="0" y1="176.55199909210205" x2="257.701997756958" y2="176.55199909210205" fill="rgb(0, 0, 0)" stroke="rgb(189, 189, 189)" stroke-width="1px" opacity="0.25"></line><line x1="0" y1="154.4829992055893" x2="257.701997756958" y2="154.4829992055893" fill="rgb(0, 0, 0)" stroke="rgb(189, 189, 189)" stroke-width="1px" opacity="0.25"></line><line x1="0" y1="132.41399931907654" x2="257.701997756958" y2="132.41399931907654" fill="rgb(0, 0, 0)" stroke="rgb(189, 189, 189)" stroke-width="1px" opacity="0.25"></line><line x1="0" y1="110.34499943256378" x2="257.701997756958" y2="110.34499943256378" fill="rgb(0, 0, 0)" stroke="rgb(189, 189, 189)" stroke-width="1px" opacity="0.25"></line><line x1="0" y1="88.27599954605103" x2="257.701997756958" y2="88.27599954605103" fill="rgb(0, 0, 0)" stroke="rgb(189, 189, 189)" stroke-width="1px" opacity="0.25"></line><line x1="0" y1="66.20699965953827" x2="257.701997756958" y2="66.20699965953827" fill="rgb(0, 0, 0)" stroke="rgb(189, 189, 189)" stroke-width="1px" opacity="0.25"></line><line x1="0" y1="44.13799977302551" x2="257.701997756958" y2="44.13799977302551" fill="rgb(0, 0, 0)" stroke="rgb(189, 189, 189)" stroke-width="1px" opacity="0.25"></line><line x1="0" y1="22.068999886512756" x2="257.701997756958" y2="22.068999886512756" fill="rgb(0, 0, 0)" stroke="rgb(189, 189, 189)" stroke-width="1px" opacity="0.25"></line><line x1="0" y1="0" x2="257.701997756958" y2="0" fill="rgb(0, 0, 0)" stroke="rgb(189, 189, 189)" stroke-width="1px" opacity="0.25"></line></g></g></g><g><g><line x1="0" y1="176.55199909210205" x2="257.701997756958" y2="176.55199909210205" fill="rgb(0, 0, 0)" stroke="rgb(153, 153, 153)" stroke-width="1.5px"></line></g></g><g><g><line x1="18.407285554068427" y1="0" x2="18.407285554068427" y2="176.55199909210205" fill="rgb(0, 0, 0)" stroke="rgb(153, 153, 153)" stroke-width="1.5px"></line></g></g><g><g><g><g><g><path style="fill: none;" stroke="rgb(0, 119, 187)" stroke-width="2px" d="M18.407285554068427,10.240015947341927L22.088742664882115,18.273131906032567L25.7701997756958,37.8704038052559L29.451656886509486,11.2551899421215L33.13311399732317,49.69938774442672L36.81457110813685,77.46218960165977L40.49602821895054,149.76023322987555L44.17748532976423,124.77812535834312L47.85894244057792,144.28712125802042L51.5403995513916,133.87055331158638L55.22185666220528,152.71747921466826L58.90331377301897,155.674725199461L62.58477088383266,148.745059235096L66.26622799464634,143.62505126142503L69.94768510546002,161.45680316972732L73.6291422162737,149.8043712296486L77.3105993270874,154.74782720422746L80.99205643790108,150.20161322760583L84.67351354871478,157.35196919083594L88.35497065952846,164.23749715542795L92.03642777034214,152.45265121603012L95.71788488115584,163.00163316178322L99.39934199196952,163.92853115701675L103.0807991027832,122.79191536855697L106.7622562135969,163.3105991601944L110.44371332441057,162.03059716677666L114.12517043522426,157.92576318788528L117.80662754603794,161.10369917154313L121.48808465685163,163.75197915792464L125.16954176766532,157.9699011876583L128.850998878479,157.6167971894741L132.53245598929269,162.51611516427994L136.21391310010637,157.88162518811225L139.89537021092005,161.10369917154313L143.57682732173376,159.6471451790333L147.2582844325474,146.80298724508285L150.93974154336112,157.26369319128992L154.6211986541748,161.32438917040827L158.3026557649885,158.6761091840267L161.98411287580217,159.07335118198395L165.66556998661588,159.5147311797142L169.34702709742956,159.73542117857932L173.0284842082432,158.14645318675042L176.70994131905692,161.7216311683655L180.3913984298706,148.83333523464202L184.0728555406843,162.0747351665497L187.75431265149797,158.94093718266487L191.43576976231168,162.20714916586874L195.11722687312533,160.61818117403985L198.79868398393904,161.54507916927338L202.48014109475272,124.16019336152075L206.1615982055664,159.5147311797142L209.8430553163801,156.64576119446755L213.5245124271938,156.64576119446755L217.20596953800745,146.09677924871445L220.88742664882113,158.94093718266487L224.56888375963484,161.80990716791152L228.25034087044853,148.92161123418808L231.9317979812622,153.20299721217157L235.6132550920759,140.22642527890204L239.2947122028896,147.20022924304007L242.97616931370325,140.71194327640532" fill="none"></path></g><g><path style="fill: none;" stroke="rgb(255, 112, 67)" stroke-width="2px" d="M18.407285554068427,91.63048752880097L22.088742664882115,96.08842550587654L25.7701997756958,102.091193475008L29.451656886509486,114.67052341032027L33.13311399732317,114.49397141122819L36.81457110813685,115.15604140782357L40.49602821895054,127.64709534358978L44.17748532976423,125.35191935539245L47.85894244057792,136.03331530046464L51.5403995513916,130.56020332860948L55.22185666220528,137.0043512954712L58.90331377301897,139.74090728139876L62.58477088383266,137.62228329229353L66.26622799464634,141.99194526982308L69.94768510546002,144.19884525847434L73.6291422162737,145.4788472518921L77.3105993270874,147.7740232400894L80.99205643790108,150.3340272269249L84.67351354871478,150.37816522669792L88.35497065952846,150.11333722805975L92.03642777034214,153.68851520967485L95.71788488115584,153.953343208313L99.39934199196952,154.7036892044544L103.0807991027832,155.10093120241166L106.7622562135969,151.26092522215842L110.44371332441057,157.17541719174386L114.12517043522426,153.953343208313L117.80662754603794,157.35196919083594L121.48808465685163,150.99609722352028L125.16954176766532,155.76300119900702L128.850998878479,156.68989919424055L132.53245598929269,154.7919652040005L136.21391310010637,154.7919652040005L139.89537021092005,156.16024319696425L143.57682732173376,156.86645119333267L147.2582844325474,157.0871411921978L150.93974154336112,145.92022724962234L154.6211986541748,154.96851720309257L158.3026557649885,158.27886718606948L161.98411287580217,158.49955718493462L165.66556998661588,155.8954151983261L169.34702709742956,157.48438319015503L173.0284842082432,154.61541320490838L176.70994131905692,154.08575720763207L180.3913984298706,150.8636832242012L184.0728555406843,155.1450692021847L187.75431265149797,154.4829992055893L191.43576976231168,157.92576318788528L195.11722687312533,159.02921318221092L198.79868398393904,161.32438917040827L202.48014109475272,156.16024319696425L206.1615982055664,152.14368521761895L209.8430553163801,150.99609722352028L213.5245124271938,156.64576119446755L217.20596953800745,159.07335118198395L220.88742664882113,155.76300119900702L224.56888375963484,158.94093718266487L228.25034087044853,155.49817320036888L231.9317979812622,154.43886120581627L235.6132550920759,151.9229952187538L239.2947122028896,157.0871411921978L242.97616931370325,151.96713321852684" fill="none"></path></g></g></g></g></g></g><g transform="translate(72, 176)" clip-path="url(#clip_1)"><clipPath id="clip_1"><rect width="257" height="23"></rect></clipPath><g><g><line x1="0" y1="0" x2="0" y2="5" style="visibility: inherit;" fill="rgb(0, 0, 0)" stroke="rgb(204, 204, 204)" stroke-width="1px"></line><line x1="18.407285554068427" y1="0" x2="18.407285554068427" y2="5" style="visibility: inherit;" fill="rgb(0, 0, 0)" stroke="rgb(204, 204, 204)" stroke-width="1px"></line><line x1="36.81457110813685" y1="0" x2="36.81457110813685" y2="5" style="visibility: inherit;" fill="rgb(0, 0, 0)" stroke="rgb(204, 204, 204)" stroke-width="1px"></line><line x1="55.22185666220528" y1="0" x2="55.22185666220528" y2="5" style="visibility: inherit;" fill="rgb(0, 0, 0)" stroke="rgb(204, 204, 204)" stroke-width="1px"></line><line x1="73.6291422162737" y1="0" x2="73.6291422162737" y2="5" style="visibility: inherit;" fill="rgb(0, 0, 0)" stroke="rgb(204, 204, 204)" stroke-width="1px"></line><line x1="92.03642777034214" y1="0" x2="92.03642777034214" y2="5" style="visibility: inherit;" fill="rgb(0, 0, 0)" stroke="rgb(204, 204, 204)" stroke-width="1px"></line><line x1="110.44371332441057" y1="0" x2="110.44371332441057" y2="5" style="visibility: inherit;" fill="rgb(0, 0, 0)" stroke="rgb(204, 204, 204)" stroke-width="1px"></line><line x1="128.850998878479" y1="0" x2="128.850998878479" y2="5" style="visibility: inherit;" fill="rgb(0, 0, 0)" stroke="rgb(204, 204, 204)" stroke-width="1px"></line><line x1="147.2582844325474" y1="0" x2="147.2582844325474" y2="5" style="visibility: inherit;" fill="rgb(0, 0, 0)" stroke="rgb(204, 204, 204)" stroke-width="1px"></line><line x1="165.66556998661588" y1="0" x2="165.66556998661588" y2="5" style="visibility: inherit;" fill="rgb(0, 0, 0)" stroke="rgb(204, 204, 204)" stroke-width="1px"></line><line x1="184.0728555406843" y1="0" x2="184.0728555406843" y2="5" style="visibility: inherit;" fill="rgb(0, 0, 0)" stroke="rgb(204, 204, 204)" stroke-width="1px"></line><line x1="202.48014109475272" y1="0" x2="202.48014109475272" y2="5" style="visibility: inherit;" fill="rgb(0, 0, 0)" stroke="rgb(204, 204, 204)" stroke-width="1px"></line><line x1="220.88742664882113" y1="0" x2="220.88742664882113" y2="5" style="visibility: inherit;" fill="rgb(0, 0, 0)" stroke="rgb(204, 204, 204)" stroke-width="1px"></line><line x1="239.2947122028896" y1="0" x2="239.2947122028896" y2="5" style="visibility: inherit;" fill="rgb(0, 0, 0)" stroke="rgb(204, 204, 204)" stroke-width="1px"></line><line x1="257.701997756958" y1="0" x2="257.701997756958" y2="5" style="visibility: inherit;" fill="rgb(0, 0, 0)" stroke="rgb(204, 204, 204)" stroke-width="1px"></line></g><g transform="translate(0, 8)"><text style="text-anchor: middle; visibility: hidden; font-family: Roboto, sans-serif; font-size: 12px; font-weight: 200;" x="0" y="0" dx="0em" dy="0.95em" fill="rgb(255, 255, 255)" stroke="none" stroke-width="1px">-5</text><text style="text-anchor: middle; visibility: inherit; font-family: Roboto, sans-serif; font-size: 12px; font-weight: 200;" x="18.407285554068427" y="0" dx="0em" dy="0.95em" fill="rgb(255, 255, 255)" stroke="none" stroke-width="1px">0</text><text style="text-anchor: middle; visibility: hidden; font-family: Roboto, sans-serif; font-size: 12px; font-weight: 200;" x="36.81457110813685" y="0" dx="0em" dy="0.95em" fill="rgb(255, 255, 255)" stroke="none" stroke-width="1px">5</text><text style="text-anchor: middle; visibility: inherit; font-family: Roboto, sans-serif; font-size: 12px; font-weight: 200;" x="55.22185666220528" y="0" dx="0em" dy="0.95em" fill="rgb(255, 255, 255)" stroke="none" stroke-width="1px">10</text><text style="text-anchor: middle; visibility: hidden; font-family: Roboto, sans-serif; font-size: 12px; font-weight: 200;" x="73.6291422162737" y="0" dx="0em" dy="0.95em" fill="rgb(255, 255, 255)" stroke="none" stroke-width="1px">15</text><text style="text-anchor: middle; visibility: inherit; font-family: Roboto, sans-serif; font-size: 12px; font-weight: 200;" x="92.03642777034214" y="0" dx="0em" dy="0.95em" fill="rgb(255, 255, 255)" stroke="none" stroke-width="1px">20</text><text style="text-anchor: middle; visibility: hidden; font-family: Roboto, sans-serif; font-size: 12px; font-weight: 200;" x="110.44371332441057" y="0" dx="0em" dy="0.95em" fill="rgb(255, 255, 255)" stroke="none" stroke-width="1px">25</text><text style="text-anchor: middle; visibility: inherit; font-family: Roboto, sans-serif; font-size: 12px; font-weight: 200;" x="128.850998878479" y="0" dx="0em" dy="0.95em" fill="rgb(255, 255, 255)" stroke="none" stroke-width="1px">30</text><text style="text-anchor: middle; visibility: hidden; font-family: Roboto, sans-serif; font-size: 12px; font-weight: 200;" x="147.2582844325474" y="0" dx="0em" dy="0.95em" fill="rgb(255, 255, 255)" stroke="none" stroke-width="1px">35</text><text style="text-anchor: middle; visibility: inherit; font-family: Roboto, sans-serif; font-size: 12px; font-weight: 200;" x="165.66556998661588" y="0" dx="0em" dy="0.95em" fill="rgb(255, 255, 255)" stroke="none" stroke-width="1px">40</text><text style="text-anchor: middle; visibility: hidden; font-family: Roboto, sans-serif; font-size: 12px; font-weight: 200;" x="184.0728555406843" y="0" dx="0em" dy="0.95em" fill="rgb(255, 255, 255)" stroke="none" stroke-width="1px">45</text><text style="text-anchor: middle; visibility: inherit; font-family: Roboto, sans-serif; font-size: 12px; font-weight: 200;" x="202.48014109475272" y="0" dx="0em" dy="0.95em" fill="rgb(255, 255, 255)" stroke="none" stroke-width="1px">50</text><text style="text-anchor: middle; visibility: hidden; font-family: Roboto, sans-serif; font-size: 12px; font-weight: 200;" x="220.88742664882113" y="0" dx="0em" dy="0.95em" fill="rgb(255, 255, 255)" stroke="none" stroke-width="1px">55</text><text style="text-anchor: middle; visibility: inherit; font-family: Roboto, sans-serif; font-size: 12px; font-weight: 200;" x="239.2947122028896" y="0" dx="0em" dy="0.95em" fill="rgb(255, 255, 255)" stroke="none" stroke-width="1px">60</text><text style="text-anchor: middle; visibility: hidden; font-family: Roboto, sans-serif; font-size: 12px; font-weight: 200;" x="257.701997756958" y="0" dx="0em" dy="0.95em" fill="rgb(255, 255, 255)" stroke="none" stroke-width="1px">65</text></g><line x1="0" y1="0" x2="257.701997756958" y2="0" fill="rgb(0, 0, 0)" stroke="rgb(204, 204, 204)" stroke-width="1px"></line></g></g></g></g></svg>