<svg viewBox="0 0 330 200" xmlns="http://www.w3.org/2000/svg"><g><g><g><g><g><line x1="41.149001121520996" y1="176.55199909210205" x2="36.149001121520996" y2="176.55199909210205" style="visibility: inherit;" fill="rgb(0, 0, 0)" stroke="rgb(204, 204, 204)" stroke-width="1px"></line><line x1="41.149001121520996" y1="154.4829992055893" x2="36.149001121520996" y2="154.4829992055893" style="visibility: inherit;" fill="rgb(0, 0, 0)" stroke="rgb(204, 204, 204)" stroke-width="1px"></line><line x1="41.149001121520996" y1="132.41399931907654" x2="36.149001121520996" y2="132.41399931907654" style="visibility: inherit;" fill="rgb(0, 0, 0)" stroke="rgb(204, 204, 204)" stroke-width="1px"></line><line x1="41.149001121520996" y1="110.34499943256378" x2="36.149001121520996" y2="110.34499943256378" style="visibility: inherit;" fill="rgb(0, 0, 0)" stroke="rgb(204, 204, 204)" stroke-width="1px"></line><line x1="41.149001121520996" y1="88.27599954605103" x2="36.149001121520996" y2="88.27599954605103" style="visibility: inherit;" fill="rgb(0, 0, 0)" stroke="rgb(204, 204, 204)" stroke-width="1px"></line><line x1="41.149001121520996" y1="66.20699965953827" x2="36.149001121520996" y2="66.20699965953827" style="visibility: inherit;" fill="rgb(0, 0, 0)" stroke="rgb(204, 204, 204)" stroke-width="1px"></line><line x1="41.149001121520996" y1="44.137999773025534" x2="36.149001121520996" y2="44.137999773025534" style="visibility: inherit;" fill="rgb(0, 0, 0)" stroke="rgb(204, 204, 204)" stroke-width="1px"></line><line x1="41.149001121520996" y1="22.068999886512778" x2="36.149001121520996" y2="22.068999886512778" style="visibility: inherit;" fill="rgb(0, 0, 0)" stroke="rgb(204, 204, 204)" stroke-width="1px"></line><line x1="41.149001121520996" y1="0" x2="36.149001121520996" y2="0" style="visibility: inherit;" fill="rgb(0, 0, 0)" stroke="rgb(204, 204, 204)" stroke-width="1px"></line></g><g transform="translate(31.149001121520996, 0)"><text style="text-anchor: end; visibility: hidden; font-family: Roboto, sans-serif; font-size: 12px; font-weight: 200;" x="0" y="176.55199909210205" dx="0em" dy="0.3em" fill="rgb(255, 255, 255)" stroke="none" stroke-width="1px">0</text><text style="text-anchor: end; visibility: inherit; font-family: Roboto, sans-serif; font-size: 12px; font-weight: 200;" x="0" y="154.4829992055893" dx="0em" dy="0.3em" fill="rgb(255, 255, 255)" stroke="none" stroke-width="1px">0.2</text><text style="text-anchor: end; visibility: hidden; font-family: Roboto, sans-serif; font-size: 12px; font-weight: 200;" x="0" y="132.41399931907654" dx="0em" dy="0.3em" fill="rgb(255, 255, 255)" stroke="none" stroke-width="1px">0.4</text><text style="text-anchor: end; visibility: inherit; font-family: Roboto, sans-serif; font-size: 12px; font-weight: 200;" x="0" y="110.34499943256378" dx="0em" dy="0.3em" fill="rgb(255, 255, 255)" stroke="none" stroke-width="1px">0.6</text><text style="text-anchor: end; visibility: hidden; font-family: Roboto, sans-serif; font-size: 12px; font-weight: 200;" x="0" y="88.27599954605103" dx="0em" dy="0.3em" fill="rgb(255, 255, 255)" stroke="none" stroke-width="1px">0.8</text><text style="text-anchor: end; visibility: inherit; font-family: Roboto, sans-serif; font-size: 12px; font-weight: 200;" x="0" y="66.20699965953827" dx="0em" dy="0.3em" fill="rgb(255, 255, 255)" stroke="none" stroke-width="1px">1</text><text style="text-anchor: end; visibility: hidden; font-family: Roboto, sans-serif; font-size: 12px; font-weight: 200;" x="0" y="44.137999773025534" dx="0em" dy="0.3em" fill="rgb(255, 255, 255)" stroke="none" stroke-width="1px">1.2</text><text style="text-anchor: end; visibility: inherit; font-family: Roboto, sans-serif; font-size: 12px; font-weight: 200;" x="0" y="22.068999886512778" dx="0em" dy="0.3em" fill="rgb(255, 255, 255)" stroke="none" stroke-width="1px">1.4</text><text style="text-anchor: end; visibility: hidden; font-family: Roboto, sans-serif; font-size: 12px; font-weight: 200;" x="0" y="0" dx="0em" dy="0.3em" fill="rgb(255, 255, 255)" stroke="none" stroke-width="1px">1.6</text></g><line x1="41.149001121520996" y1="0" x2="41.149001121520996" y2="176.55199909210205" fill="rgb(0, 0, 0)" stroke="rgb(204, 204, 204)" stroke-width="1px"></line></g></g><g transform="translate(41, 0)" clip-path="url(#clip_0)"><clipPath id="clip_0"><rect width="288" height="176"></rect></clipPath><g><g><g><line x1="0" y1="0" x2="0" y2="176.55199909210205" fill="rgb(0, 0, 0)" stroke="rgb(189, 189, 189)" stroke-width="1px" opacity="0.25"></line><line x1="20.632214205605642" y1="0" x2="20.632214205605642" y2="176.55199909210205" fill="rgb(0, 0, 0)" stroke="rgb(189, 189, 189)" stroke-width="1px" opacity="0.25"></line><line x1="41.264428411211284" y1="0" x2="41.264428411211284" y2="176.55199909210205" fill="rgb(0, 0, 0)" stroke="rgb(189, 189, 189)" stroke-width="1px" opacity="0.25"></line><line x1="61.896642616816926" y1="0" x2="61.896642616816926" y2="176.55199909210205" fill="rgb(0, 0, 0)" stroke="rgb(189, 189, 189)" stroke-width="1px" opacity="0.25"></line><line x1="82.52885682242257" y1="0" x2="82.52885682242257" y2="176.55199909210205" fill="rgb(0, 0, 0)" stroke="rgb(189, 189, 189)" stroke-width="1px" opacity="0.25"></line><line x1="103.16107102802822" y1="0" x2="103.16107102802822" y2="176.55199909210205" fill="rgb(0, 0, 0)" stroke="rgb(189, 189, 189)" stroke-width="1px" opacity="0.25"></line><line x1="123.79328523363385" y1="0" x2="123.79328523363385" y2="176.55199909210205" fill="rgb(0, 0, 0)" stroke="rgb(189, 189, 189)" stroke-width="1px" opacity="0.25"></line><line x1="144.4254994392395" y1="0" x2="144.4254994392395" y2="176.55199909210205" fill="rgb(0, 0, 0)" stroke="rgb(189, 189, 189)" stroke-width="1px" opacity="0.25"></line><line x1="165.05771364484514" y1="0" x2="165.05771364484514" y2="176.55199909210205" fill="rgb(0, 0, 0)" stroke="rgb(189, 189, 189)" stroke-width="1px" opacity="0.25"></line><line x1="185.6899278504508" y1="0" x2="185.6899278504508" y2="176.55199909210205" fill="rgb(0, 0, 0)" stroke="rgb(189, 189, 189)" stroke-width="1px" opacity="0.25"></line><line x1="206.32214205605644" y1="0" x2="206.32214205605644" y2="176.55199909210205" fill="rgb(0, 0, 0)" stroke="rgb(189, 189, 189)" stroke-width="1px" opacity="0.25"></line><line x1="226.95435626166207" y1="0" x2="226.95435626166207" y2="176.55199909210205" fill="rgb(0, 0, 0)" stroke="rgb(189, 189, 189)" stroke-width="1px" opacity="0.25"></line><line x1="247.5865704672677" y1="0" x2="247.5865704672677" y2="176.55199909210205" fill="rgb(0, 0, 0)" stroke="rgb(189, 189, 189)" stroke-width="1px" opacity="0.25"></line><line x1="268.21878467287337" y1="0" x2="268.21878467287337" y2="176.55199909210205" fill="rgb(0, 0, 0)" stroke="rgb(189, 189, 189)" stroke-width="1px" opacity="0.25"></line><line x1="288.850998878479" y1="0" x2="288.850998878479" y2="176.55199909210205" fill="rgb(0, 0, 0)" stroke="rgb(189, 189, 189)" stroke-width="1px" opacity="0.25"></line></g><g><line x1="0" y1="176.55199909210205" x2="288.850998878479" y2="176.55199909210205" fill="rgb(0, 0, 0)" stroke="rgb(189, 189, 189)" stroke-width="1px" opacity="0.25"></line><line x1="0" y1="154.4829992055893" x2="288.850998878479" y2="154.4829992055893" fill="rgb(0, 0, 0)" stroke="rgb(189, 189, 189)" stroke-width="1px" opacity="0.25"></line><line x1="0" y1="132.41399931907654" x2="288.850998878479" y2="132.41399931907654" fill="rgb(0, 0, 0)" stroke="rgb(189, 189, 189)" stroke-width="1px" opacity="0.25"></line><line x1="0" y1="110.34499943256378" x2="288.850998878479" y2="110.34499943256378" fill="rgb(0, 0, 0)" stroke="rgb(189, 189, 189)" stroke-width="1px" opacity="0.25"></line><line x1="0" y1="88.27599954605103" x2="288.850998878479" y2="88.27599954605103" fill="rgb(0, 0, 0)" stroke="rgb(189, 189, 189)" stroke-width="1px" opacity="0.25"></line><line x1="0" y1="66.20699965953827" x2="288.850998878479" y2="66.20699965953827" fill="rgb(0, 0, 0)" stroke="rgb(189, 189, 189)" stroke-width="1px" opacity="0.25"></line><line x1="0" y1="44.137999773025534" x2="288.850998878479" y2="44.137999773025534" fill="rgb(0, 0, 0)" stroke="rgb(189, 189, 189)" stroke-width="1px" opacity="0.25"></line><line x1="0" y1="22.068999886512778" x2="288.850998878479" y2="22.068999886512778" fill="rgb(0, 0, 0)" stroke="rgb(189, 189, 189)" stroke-width="1px" opacity="0.25"></line><line x1="0" y1="0" x2="288.850998878479" y2="0" fill="rgb(0, 0, 0)" stroke="rgb(189, 189, 189)" stroke-width="1px" opacity="0.25"></line></g></g></g><g><g><line x1="0" y1="176.55199909210205" x2="288.850998878479" y2="176.55199909210205" fill="rgb(0, 0, 0)" stroke="rgb(153, 153, 153)" stroke-width="1.5px"></line></g></g><g><g><line x1="20.632214205605642" y1="0" x2="20.632214205605642" y2="176.55199909210205" fill="rgb(0, 0, 0)" stroke="rgb(153, 153, 153)" stroke-width="1.5px"></line></g></g><g><g><g><g><g><path style="fill: none;" stroke="rgb(0, 119, 187)" stroke-width="2px" d="M20.632214205605642,107.677966786152L24.75865704672677,107.8185649076085L28.8850998878479,93.90794711977867L33.011542728969026,101.54149708965545L37.13798557009015,106.84928170821622L41.264428411211284,97.95028287448599L45.39087125233242,134.44854759678063L49.51731409345354,122.60757072532465L53.643756934574675,146.1914241136226L57.7701997756958,132.4846726153435L61.896642616816926,142.29583604502355L66.02308545793805,136.89571587764266L70.14952829905918,140.51380401919428L74.2759711401803,133.3511331206351L78.40241398130144,139.55151553852627L82.52885682242257,136.90682126792564L86.6552996635437,143.26574735503L90.78174250466483,141.58323304336818L94.90818534578595,148.26838531390817L99.03462818690709,140.32036896979088L103.16107102802822,137.94321693545385L107.28751386914935,151.75149215562107L111.41395671027048,145.4078084386564L115.5403995513916,110.1206593678209L119.66684239251273,147.59309076731955L123.79328523363385,151.70020084018026L127.91972807475499,150.68857607946475L132.0461709158761,152.2893340666299L136.17261375699724,144.11437083429408L140.29905659811837,149.71454258801924L144.4254994392395,148.4811997133079L148.5519422803606,157.24676943677997L152.67838512148177,150.6736346104832L156.80482796260287,153.76814158279743L160.93127080372403,153.08303404106388L165.05771364484514,143.29442011128623L169.18415648596627,148.65818878793922L173.3105993270874,151.35210095124648L177.43704216820854,147.15544565341972L181.56348500932967,147.50761839573383L185.6899278504508,150.6700205080488L189.8163706915719,152.3381721332845L193.94281353269304,143.02912723449953L198.06925637381417,81.59386812582612L202.1956992149353,132.05105924810843L206.32214205605644,135.2265234303683L210.44858489717754,115.6634297039004L214.5750277382987,86.44517088913646L218.7014705794198,116.16862137285278L222.82791342054097,132.42882009874114L226.95435626166207,7.953903483496788L231.0807991027832,138.9137925299842L235.20724194390434,128.405728864003L239.33368478502547,101.27863115335701L243.4601276261466,146.60356662117226L247.5865704672677,150.2435695749376L251.71301330838884,145.76709099849842L255.83945614950997,132.7335228058954L259.9658989906311,145.03097824406456L264.0923418317522,126.86746295014183L268.21878467287337,120.73734013053192L272.3452275139945,64.68747183091027" fill="none"></path></g><g><path style="fill: none;" stroke="rgb(255, 112, 67)" stroke-width="2px" d="M20.632214205605642,143.55555298845553L24.75865704672677,153.1728127521745L28.8850998878479,156.44722408738951L33.011542728969026,157.4227127565668L37.13798557009015,158.6899111222356L41.264428411211284,158.40458776507768L45.39087125233242,161.15243851630956L49.51731409345354,160.70557398823786L53.643756934574675,161.31622411389438L57.7701997756958,160.10341651002165L61.896642616816926,161.5752589043001L66.02308545793805,162.21407864001407L70.14952829905918,160.25278351604715L74.2759711401803,162.40263350014297L78.40241398130144,161.01047236335833L82.52885682242257,161.37825085917788L86.6552996635437,163.08633437006912L90.78174250466483,163.47334752024614L94.90818534578595,162.3040135566439L99.03462818690709,163.503366932505L103.16107102802822,163.9105166183795L107.28751386914935,163.82207305339114L111.41395671027048,164.57545720544604L115.5403995513916,163.05866050700163L119.66684239251273,160.61891774324323L123.79328523363385,164.17338091040932L127.91972807475499,162.65174184086877L132.0461709158761,164.07462860328604L136.17261375699724,161.58906089512558L140.29905659811837,164.9103848584371L144.4254994392395,162.0266533924295L148.5519422803606,162.24367711950532L152.67838512148177,161.1123068520163L156.80482796260287,164.18145838002215L160.93127080372403,163.72215660408247L165.05771364484514,164.80085601475557L169.18415648596627,147.80361963333263L173.3105993270874,160.9853380731798L177.43704216820854,164.26083133714909L181.56348500932967,163.52059229060458L185.6899278504508,164.00256688659343L189.8163706915719,163.32893140704593L193.94281353269304,160.34193576081222L198.06925637381417,160.98155625534582L202.1956992149353,155.79207840851302L206.32214205605644,163.07422433165718L210.44858489717754,150.74816930718552L214.5750277382987,163.74833171629965L218.7014705794198,164.90194811613003L222.82791342054097,166.61310476507853L226.95435626166207,129.7994208148761L231.0807991027832,156.80167578601578L235.20724194390434,133.99440060297556L239.33368478502547,161.11722485946913L243.4601276261466,164.6729697340272L247.5865704672677,163.33678278972303L251.71301330838884,165.22349882173478L255.83945614950997,163.15872576262075L259.9658989906311,158.65202059607614L264.0923418317522,155.16708861619117L268.21878467287337,148.48238029817955L272.3452275139945,154.08865228849783" fill="none"></path></g></g></g></g></g></g><g transform="translate(41, 176)" clip-path="url(#clip_1)"><clipPath id="clip_1"><rect width="288" height="23"></rect></clipPath><g><g><line x1="0" y1="0" x2="0" y2="5" style="visibility: inherit;" fill="rgb(0, 0, 0)" stroke="rgb(204, 204, 204)" stroke-width="1px"></line><line x1="20.632214205605642" y1="0" x2="20.632214205605642" y2="5" style="visibility: inherit;" fill="rgb(0, 0, 0)" stroke="rgb(204, 204, 204)" stroke-width="1px"></line><line x1="41.264428411211284" y1="0" x2="41.264428411211284" y2="5" style="visibility: inherit;" fill="rgb(0, 0, 0)" stroke="rgb(204, 204, 204)" stroke-width="1px"></line><line x1="61.896642616816926" y1="0" x2="61.896642616816926" y2="5" style="visibility: inherit;" fill="rgb(0, 0, 0)" stroke="rgb(204, 204, 204)" stroke-width="1px"></line><line x1="82.52885682242257" y1="0" x2="82.52885682242257" y2="5" style="visibility: inherit;" fill="rgb(0, 0, 0)" stroke="rgb(204, 204, 204)" stroke-width="1px"></line><line x1="103.16107102802822" y1="0" x2="103.16107102802822" y2="5" style="visibility: inherit;" fill="rgb(0, 0, 0)" stroke="rgb(204, 204, 204)" stroke-width="1px"></line><line x1="123.79328523363385" y1="0" x2="123.79328523363385" y2="5" style="visibility: inherit;" fill="rgb(0, 0, 0)" stroke="rgb(204, 204, 204)" stroke-width="1px"></line><line x1="144.4254994392395" y1="0" x2="144.4254994392395" y2="5" style="visibility: inherit;" fill="rgb(0, 0, 0)" stroke="rgb(204, 204, 204)" stroke-width="1px"></line><line x1="165.05771364484514" y1="0" x2="165.05771364484514" y2="5" style="visibility: inherit;" fill="rgb(0, 0, 0)" stroke="rgb(204, 204, 204)" stroke-width="1px"></line><line x1="185.6899278504508" y1="0" x2="185.6899278504508" y2="5" style="visibility: inherit;" fill="rgb(0, 0, 0)" stroke="rgb(204, 204, 204)" stroke-width="1px"></line><line x1="206.32214205605644" y1="0" x2="206.32214205605644" y2="5" style="visibility: inherit;" fill="rgb(0, 0, 0)" stroke="rgb(204, 204, 204)" stroke-width="1px"></line><line x1="226.95435626166207" y1="0" x2="226.95435626166207" y2="5" style="visibility: inherit;" fill="rgb(0, 0, 0)" stroke="rgb(204, 204, 204)" stroke-width="1px"></line><line x1="247.5865704672677" y1="0" x2="247.5865704672677" y2="5" style="visibility: inherit;" fill="rgb(0, 0, 0)" stroke="rgb(204, 204, 204)" stroke-width="1px"></line><line x1="268.21878467287337" y1="0" x2="268.21878467287337" y2="5" style="visibility: inherit;" fill="rgb(0, 0, 0)" stroke="rgb(204, 204, 204)" stroke-width="1px"></line><line x1="288.850998878479" y1="0" x2="288.850998878479" y2="5" style="visibility: inherit;" fill="rgb(0, 0, 0)" stroke="rgb(204, 204, 204)" stroke-width="1px"></line></g><g transform="translate(0, 8)"><text style="text-anchor: middle; visibility: hidden; font-family: Roboto, sans-serif; font-size: 12px; font-weight: 200;" x="0" y="0" dx="0em" dy="0.95em" fill="rgb(255, 255, 255)" stroke="none" stroke-width="1px">-5</text><text style="text-anchor: middle; visibility: inherit; font-family: Roboto, sans-serif; font-size: 12px; font-weight: 200;" x="20.632214205605642" y="0" dx="0em" dy="0.95em" fill="rgb(255, 255, 255)" stroke="none" stroke-width="1px">0</text><text style="text-anchor: middle; visibility: inherit; font-family: Roboto, sans-serif; font-size: 12px; font-weight: 200;" x="41.264428411211284" y="0" dx="0em" dy="0.95em" fill="rgb(255, 255, 255)" stroke="none" stroke-width="1px">5</text><text style="text-anchor: middle; visibility: inherit; font-family: Roboto, sans-serif; font-size: 12px; font-weight: 200;" x="61.896642616816926" y="0" dx="0em" dy="0.95em" fill="rgb(255, 255, 255)" stroke="none" stroke-width="1px">10</text><text style="text-anchor: middle; visibility: inherit; font-family: Roboto, sans-serif; font-size: 12px; font-weight: 200;" x="82.52885682242257" y="0" dx="0em" dy="0.95em" fill="rgb(255, 255, 255)" stroke="none" stroke-width="1px">15</text><text style="text-anchor: middle; visibility: inherit; font-family: Roboto, sans-serif; font-size: 12px; font-weight: 200;" x="103.16107102802822" y="0" dx="0em" dy="0.95em" fill="rgb(255, 255, 255)" stroke="none" stroke-width="1px">20</text><text style="text-anchor: middle; visibility: inherit; font-family: Roboto, sans-serif; font-size: 12px; font-weight: 200;" x="123.79328523363385" y="0" dx="0em" dy="0.95em" fill="rgb(255, 255, 255)" stroke="none" stroke-width="1px">25</text><text style="text-anchor: middle; visibility: inherit; font-family: Roboto, sans-serif; font-size: 12px; font-weight: 200;" x="144.4254994392395" y="0" dx="0em" dy="0.95em" fill="rgb(255, 255, 255)" stroke="none" stroke-width="1px">30</text><text style="text-anchor: middle; visibility: inherit; font-family: Roboto, sans-serif; font-size: 12px; font-weight: 200;" x="165.05771364484514" y="0" dx="0em" dy="0.95em" fill="rgb(255, 255, 255)" stroke="none" stroke-width="1px">35</text><text style="text-anchor: middle; visibility: inherit; font-family: Roboto, sans-serif; font-size: 12px; font-weight: 200;" x="185.6899278504508" y="0" dx="0em" dy="0.95em" fill="rgb(255, 255, 255)" stroke="none" stroke-width="1px">40</text><text style="text-anchor: middle; visibility: inherit; font-family: Roboto, sans-serif; font-size: 12px; font-weight: 200;" x="206.32214205605644" y="0" dx="0em" dy="0.95em" fill="rgb(255, 255, 255)" stroke="none" stroke-width="1px">45</text><text style="text-anchor: middle; visibility: inherit; font-family: Roboto, sans-serif; font-size: 12px; font-weight: 200;" x="226.95435626166207" y="0" dx="0em" dy="0.95em" fill="rgb(255, 255, 255)" stroke="none" stroke-width="1px">50</text><text style="text-anchor: middle; visibility: inherit; font-family: Roboto, sans-serif; font-size: 12px; font-weight: 200;" x="247.5865704672677" y="0" dx="0em" dy="0.95em" fill="rgb(255, 255, 255)" stroke="none" stroke-width="1px">55</text><text style="text-anchor: middle; visibility: inherit; font-family: Roboto, sans-serif; font-size: 12px; font-weight: 200;" x="268.21878467287337" y="0" dx="0em" dy="0.95em" fill="rgb(255, 255, 255)" stroke="none" stroke-width="1px">60</text><text style="text-anchor: middle; visibility: hidden; font-family: Roboto, sans-serif; font-size: 12px; font-weight: 200;" x="288.850998878479" y="0" dx="0em" dy="0.95em" fill="rgb(255, 255, 255)" stroke="none" stroke-width="1px">65</text></g><line x1="0" y1="0" x2="288.850998878479" y2="0" fill="rgb(0, 0, 0)" stroke="rgb(204, 204, 204)" stroke-width="1px"></line></g></g></g></g></svg>