<svg viewBox="0 0 330 200" xmlns="http://www.w3.org/2000/svg"><g><g><g><g><g><line x1="72.29800224304199" y1="176.55199909210205" x2="67.29800224304199" y2="176.55199909210205" style="visibility: inherit;" fill="rgb(0, 0, 0)" stroke="rgb(204, 204, 204)" stroke-width="1px"></line><line x1="72.29800224304199" y1="156.9351103040907" x2="67.29800224304199" y2="156.9351103040907" style="visibility: inherit;" fill="rgb(0, 0, 0)" stroke="rgb(204, 204, 204)" stroke-width="1px"></line><line x1="72.29800224304199" y1="137.31822151607938" x2="67.29800224304199" y2="137.31822151607938" style="visibility: inherit;" fill="rgb(0, 0, 0)" stroke="rgb(204, 204, 204)" stroke-width="1px"></line><line x1="72.29800224304199" y1="117.70133272806805" x2="67.29800224304199" y2="117.70133272806805" style="visibility: inherit;" fill="rgb(0, 0, 0)" stroke="rgb(204, 204, 204)" stroke-width="1px"></line><line x1="72.29800224304199" y1="98.0844439400567" x2="67.29800224304199" y2="98.0844439400567" style="visibility: inherit;" fill="rgb(0, 0, 0)" stroke="rgb(204, 204, 204)" stroke-width="1px"></line><line x1="72.29800224304199" y1="78.46755515204535" x2="67.29800224304199" y2="78.46755515204535" style="visibility: inherit;" fill="rgb(0, 0, 0)" stroke="rgb(204, 204, 204)" stroke-width="1px"></line><line x1="72.29800224304199" y1="58.850666364034026" x2="67.29800224304199" y2="58.850666364034026" style="visibility: inherit;" fill="rgb(0, 0, 0)" stroke="rgb(204, 204, 204)" stroke-width="1px"></line><line x1="72.29800224304199" y1="39.233777576022675" x2="67.29800224304199" y2="39.233777576022675" style="visibility: inherit;" fill="rgb(0, 0, 0)" stroke="rgb(204, 204, 204)" stroke-width="1px"></line><line x1="72.29800224304199" y1="19.616888788011348" x2="67.29800224304199" y2="19.616888788011348" style="visibility: inherit;" fill="rgb(0, 0, 0)" stroke="rgb(204, 204, 204)" stroke-width="1px"></line><line x1="72.29800224304199" y1="0" x2="67.29800224304199" y2="0" style="visibility: inherit;" fill="rgb(0, 0, 0)" stroke="rgb(204, 204, 204)" stroke-width="1px"></line></g><g transform="translate(62.29800224304199, 0)"><text style="text-anchor: end; visibility: hidden; font-family: Roboto, sans-serif; font-size: 12px; font-weight: 200;" x="0" y="176.55199909210205" dx="0em" dy="0.3em" fill="rgb(255, 255, 255)" stroke="none" stroke-width="1px">-200</text><text style="text-anchor: end; visibility: inherit; font-family: Roboto, sans-serif; font-size: 12px; font-weight: 200;" x="0" y="156.9351103040907" dx="0em" dy="0.3em" fill="rgb(255, 255, 255)" stroke="none" stroke-width="1px">0</text><text style="text-anchor: end; visibility: hidden; font-family: Roboto, sans-serif; font-size: 12px; font-weight: 200;" x="0" y="137.31822151607938" dx="0em" dy="0.3em" fill="rgb(255, 255, 255)" stroke="none" stroke-width="1px">200</text><text style="text-anchor: end; visibility: inherit; font-family: Roboto, sans-serif; font-size: 12px; font-weight: 200;" x="0" y="117.70133272806805" dx="0em" dy="0.3em" fill="rgb(255, 255, 255)" stroke="none" stroke-width="1px">400</text><text style="text-anchor: end; visibility: hidden; font-family: Roboto, sans-serif; font-size: 12px; font-weight: 200;" x="0" y="98.0844439400567" dx="0em" dy="0.3em" fill="rgb(255, 255, 255)" stroke="none" stroke-width="1px">600</text><text style="text-anchor: end; visibility: inherit; font-family: Roboto, sans-serif; font-size: 12px; font-weight: 200;" x="0" y="78.46755515204535" dx="0em" dy="0.3em" fill="rgb(255, 255, 255)" stroke="none" stroke-width="1px">800</text><text style="text-anchor: end; visibility: hidden; font-family: Roboto, sans-serif; font-size: 12px; font-weight: 200;" x="0" y="58.850666364034026" dx="0em" dy="0.3em" fill="rgb(255, 255, 255)" stroke="none" stroke-width="1px">1e+3</text><text style="text-anchor: end; visibility: inherit; font-family: Roboto, sans-serif; font-size: 12px; font-weight: 200;" x="0" y="39.233777576022675" dx="0em" dy="0.3em" fill="rgb(255, 255, 255)" stroke="none" stroke-width="1px">1.2e+3</text><text style="text-anchor: end; visibility: hidden; font-family: Roboto, sans-serif; font-size: 12px; font-weight: 200;" x="0" y="19.616888788011348" dx="0em" dy="0.3em" fill="rgb(255, 255, 255)" stroke="none" stroke-width="1px">1.4e+3</text><text style="text-anchor: end; visibility: hidden; font-family: Roboto, sans-serif; font-size: 12px; font-weight: 200;" x="0" y="0" dx="0em" dy="0.3em" fill="rgb(255, 255, 255)" stroke="none" stroke-width="1px">1.6e+3</text></g><line x1="72.29800224304199" y1="0" x2="72.29800224304199" y2="176.55199909210205" fill="rgb(0, 0, 0)" stroke="rgb(204, 204, 204)" stroke-width="1px"></line></g></g><g transform="translate(72, 0)" clip-path="url(#clip_0)"><clipPath id="clip_0"><rect width="257" height="176"></rect></clipPath><g><g><g><line x1="0" y1="0" x2="0" y2="176.55199909210205" fill="rgb(0, 0, 0)" stroke="rgb(189, 189, 189)" stroke-width="1px" opacity="0.25"></line><line x1="18.407285554068427" y1="0" x2="18.407285554068427" y2="176.55199909210205" fill="rgb(0, 0, 0)" stroke="rgb(189, 189, 189)" stroke-width="1px" opacity="0.25"></line><line x1="36.81457110813685" y1="0" x2="36.81457110813685" y2="176.55199909210205" fill="rgb(0, 0, 0)" stroke="rgb(189, 189, 189)" stroke-width="1px" opacity="0.25"></line><line x1="55.22185666220528" y1="0" x2="55.22185666220528" y2="176.55199909210205" fill="rgb(0, 0, 0)" stroke="rgb(189, 189, 189)" stroke-width="1px" opacity="0.25"></line><line x1="73.6291422162737" y1="0" x2="73.6291422162737" y2="176.55199909210205" fill="rgb(0, 0, 0)" stroke="rgb(189, 189, 189)" stroke-width="1px" opacity="0.25"></line><line x1="92.03642777034214" y1="0" x2="92.03642777034214" y2="176.55199909210205" fill="rgb(0, 0, 0)" stroke="rgb(189, 189, 189)" stroke-width="1px" opacity="0.25"></line><line x1="110.44371332441057" y1="0" x2="110.44371332441057" y2="176.55199909210205" fill="rgb(0, 0, 0)" stroke="rgb(189, 189, 189)" stroke-width="1px" opacity="0.25"></line><line x1="128.850998878479" y1="0" x2="128.850998878479" y2="176.55199909210205" fill="rgb(0, 0, 0)" stroke="rgb(189, 189, 189)" stroke-width="1px" opacity="0.25"></line><line x1="147.2582844325474" y1="0" x2="147.2582844325474" y2="176.55199909210205" fill="rgb(0, 0, 0)" stroke="rgb(189, 189, 189)" stroke-width="1px" opacity="0.25"></line><line x1="165.66556998661588" y1="0" x2="165.66556998661588" y2="176.55199909210205" fill="rgb(0, 0, 0)" stroke="rgb(189, 189, 189)" stroke-width="1px" opacity="0.25"></line><line x1="184.0728555406843" y1="0" x2="184.0728555406843" y2="176.55199909210205" fill="rgb(0, 0, 0)" stroke="rgb(189, 189, 189)" stroke-width="1px" opacity="0.25"></line><line x1="202.48014109475272" y1="0" x2="202.48014109475272" y2="176.55199909210205" fill="rgb(0, 0, 0)" stroke="rgb(189, 189, 189)" stroke-width="1px" opacity="0.25"></line><line x1="220.88742664882113" y1="0" x2="220.88742664882113" y2="176.55199909210205" fill="rgb(0, 0, 0)" stroke="rgb(189, 189, 189)" stroke-width="1px" opacity="0.25"></line><line x1="239.2947122028896" y1="0" x2="239.2947122028896" y2="176.55199909210205" fill="rgb(0, 0, 0)" stroke="rgb(189, 189, 189)" stroke-width="1px" opacity="0.25"></line><line x1="257.701997756958" y1="0" x2="257.701997756958" y2="176.55199909210205" fill="rgb(0, 0, 0)" stroke="rgb(189, 189, 189)" stroke-width="1px" opacity="0.25"></line></g><g><line x1="0" y1="176.55199909210205" x2="257.701997756958" y2="176.55199909210205" fill="rgb(0, 0, 0)" stroke="rgb(189, 189, 189)" stroke-width="1px" opacity="0.25"></line><line x1="0" y1="156.9351103040907" x2="257.701997756958" y2="156.9351103040907" fill="rgb(0, 0, 0)" stroke="rgb(189, 189, 189)" stroke-width="1px" opacity="0.25"></line><line x1="0" y1="137.31822151607938" x2="257.701997756958" y2="137.31822151607938" fill="rgb(0, 0, 0)" stroke="rgb(189, 189, 189)" stroke-width="1px" opacity="0.25"></line><line x1="0" y1="117.70133272806805" x2="257.701997756958" y2="117.70133272806805" fill="rgb(0, 0, 0)" stroke="rgb(189, 189, 189)" stroke-width="1px" opacity="0.25"></line><line x1="0" y1="98.0844439400567" x2="257.701997756958" y2="98.0844439400567" fill="rgb(0, 0, 0)" stroke="rgb(189, 189, 189)" stroke-width="1px" opacity="0.25"></line><line x1="0" y1="78.46755515204535" x2="257.701997756958" y2="78.46755515204535" fill="rgb(0, 0, 0)" stroke="rgb(189, 189, 189)" stroke-width="1px" opacity="0.25"></line><line x1="0" y1="58.850666364034026" x2="257.701997756958" y2="58.850666364034026" fill="rgb(0, 0, 0)" stroke="rgb(189, 189, 189)" stroke-width="1px" opacity="0.25"></line><line x1="0" y1="39.233777576022675" x2="257.701997756958" y2="39.233777576022675" fill="rgb(0, 0, 0)" stroke="rgb(189, 189, 189)" stroke-width="1px" opacity="0.25"></line><line x1="0" y1="19.616888788011348" x2="257.701997756958" y2="19.616888788011348" fill="rgb(0, 0, 0)" stroke="rgb(189, 189, 189)" stroke-width="1px" opacity="0.25"></line><line x1="0" y1="0" x2="257.701997756958" y2="0" fill="rgb(0, 0, 0)" stroke="rgb(189, 189, 189)" stroke-width="1px" opacity="0.25"></line></g></g></g><g><g><line x1="0" y1="156.9351103040907" x2="257.701997756958" y2="156.9351103040907" fill="rgb(0, 0, 0)" stroke="rgb(153, 153, 153)" stroke-width="1.5px"></line></g></g><g><g><line x1="18.407285554068427" y1="0" x2="18.407285554068427" y2="176.55199909210205" fill="rgb(0, 0, 0)" stroke="rgb(153, 153, 153)" stroke-width="1.5px"></line></g></g><g><g><g><g><g><path style="fill: none;" stroke="rgb(0, 119, 187)" stroke-width="2px" d="M18.407285554068427,145.26306147522396L22.088742664882115,152.52131032678815L25.7701997756958,155.07150586922964L29.451656886509486,156.24851919651033L33.13311399732317,153.30598587830863L36.81457110813685,153.69832365406884L40.49602821895054,134.08143486605752L44.17748532976423,148.40176368130577L47.85894244057792,144.9688081434038L51.5403995513916,145.45923036310407L55.22185666220528,133.78718153423733L58.90331377301897,94.35723507033455L62.58477088383266,142.41861260096232L66.26622799464634,146.24390591462455L69.94768510546002,108.77564832952287L73.6291422162737,127.31360823419358L77.3105993270874,141.3396837176217L80.99205643790108,150.1672836722268L84.67351354871478,149.57877700858646L88.35497065952846,98.0844439400567L92.03642777034214,153.30598587830863L95.71788488115584,128.78487489329444L99.39934199196952,89.45301287333169L103.0807991027832,155.8561814207501L106.7622562135969,102.7924972491794L110.44371332441057,143.595625928243L114.12517043522426,149.2845236767663L117.80662754603794,144.57647036764357L121.48808465685163,17.26286213344997L125.16954176766532,135.4546170812183L128.850998878479,152.12897255102794L132.53245598929269,127.90211489783393L136.21391310010637,144.4783859237035L139.89537021092005,137.12205262819924L143.57682732173376,141.63393704944187L147.2582844325474,152.12897255102794L150.93974154336112,151.7366347752677L154.6211986541748,140.06458594640097L158.3026557649885,151.63855033132765L161.98411287580217,125.45000379933252L165.66556998661588,148.9902703449461L169.34702709742956,150.46153700404696L173.0284842082432,147.81325701766542L176.70994131905692,98.0844439400567L180.3913984298706,150.65770589192707L184.0728555406843,140.65309261004128L187.75431265149797,151.24621255556744L191.43576976231168,147.4209192419052L195.11722687312533,150.65770589192707L198.79868398393904,148.794101457066L202.48014109475272,151.83471921920776L206.1615982055664,149.57877700858646L209.8430553163801,152.52131032678815L213.5245124271938,151.24621255556744L217.20596953800745,150.8538747798072L220.88742664882113,141.92819038126203L224.56888375963484,142.7128659327825L228.25034087044853,154.77725253740948L231.9317979812622,149.08835478888616L235.6132550920759,154.77725253740948L239.2947122028896,154.58108364952935L242.97616931370325,156.15043475257028" fill="none"></path></g><g><path style="fill: none;" stroke="rgb(255, 112, 67)" stroke-width="2px" d="M18.407285554068427,126.6270171266132L22.088742664882115,129.0791282251146L25.7701997756958,118.28983939170836L29.451656886509486,108.87373277346293L33.13311399732317,132.70825265089672L36.81457110813685,134.47377264181773L40.49602821895054,127.01935490237342L44.17748532976423,128.1963682296541L47.85894244057792,115.83772829320695L51.5403995513916,107.50055055830212L55.22185666220528,110.93350609620414L58.90331377301897,117.40707939624787L62.58477088383266,109.56032388104332L66.26622799464634,102.7924972491794L69.94768510546002,96.41700839307573L73.6291422162737,100.83080837037828L77.3105993270874,105.04843945980072L80.99205643790108,105.63694612344106L84.67351354871478,103.9695105764601L88.35497065952846,100.04613281885783L92.03642777034214,105.93119945526122L95.71788488115584,105.14652390374079L99.39934199196952,102.49824391735923L103.0807991027832,106.22545278708141L106.7622562135969,98.47678171581691L110.44371332441057,102.00782169765895L114.12517043522426,103.9695105764601L117.80662754603794,104.36184835222033L121.48808465685163,107.20629722648196L125.16954176766532,111.9143505356047L128.850998878479,108.57947944164276L132.53245598929269,106.22545278708141L136.21391310010637,102.89058169311949L139.89537021092005,107.89288833406238L143.57682732173376,106.9120438946618L147.2582844325474,107.69671944618224L150.93974154336112,94.94574173397488L154.6211986541748,103.87142613252004L158.3026557649885,107.01012833860185L161.98411287580217,110.54116832044389L165.66556998661588,102.30207502947913L169.34702709742956,102.89058169311949L173.0284842082432,101.81165280977885L176.70994131905692,108.48139499770271L180.3913984298706,96.71126172489589L184.0728555406843,111.81626609166463L187.75431265149797,112.60094164318508L191.43576976231168,110.14883054468368L195.11722687312533,110.63925276438395L198.79868398393904,116.42623495684731L202.48014109475272,112.60094164318508L206.1615982055664,101.02697725825838L209.8430553163801,104.16567946434023L213.5245124271938,105.63694612344106L217.20596953800745,114.95496829774645L220.88742664882113,117.01474162048764L224.56888375963484,110.83542165226406L228.25034087044853,108.97181721740299L231.9317979812622,100.1442172627979L235.6132550920759,100.73272392643821L239.2947122028896,106.12736834314136L242.97616931370325,91.02236397637262" fill="none"></path></g></g></g></g></g></g><g transform="translate(72, 176)" clip-path="url(#clip_1)"><clipPath id="clip_1"><rect width="257" height="23"></rect></clipPath><g><g><line x1="0" y1="0" x2="0" y2="5" style="visibility: inherit;" fill="rgb(0, 0, 0)" stroke="rgb(204, 204, 204)" stroke-width="1px"></line><line x1="18.407285554068427" y1="0" x2="18.407285554068427" y2="5" style="visibility: inherit;" fill="rgb(0, 0, 0)" stroke="rgb(204, 204, 204)" stroke-width="1px"></line><line x1="36.81457110813685" y1="0" x2="36.81457110813685" y2="5" style="visibility: inherit;" fill="rgb(0, 0, 0)" stroke="rgb(204, 204, 204)" stroke-width="1px"></line><line x1="55.22185666220528" y1="0" x2="55.22185666220528" y2="5" style="visibility: inherit;" fill="rgb(0, 0, 0)" stroke="rgb(204, 204, 204)" stroke-width="1px"></line><line x1="73.6291422162737" y1="0" x2="73.6291422162737" y2="5" style="visibility: inherit;" fill="rgb(0, 0, 0)" stroke="rgb(204, 204, 204)" stroke-width="1px"></line><line x1="92.03642777034214" y1="0" x2="92.03642777034214" y2="5" style="visibility: inherit;" fill="rgb(0, 0, 0)" stroke="rgb(204, 204, 204)" stroke-width="1px"></line><line x1="110.44371332441057" y1="0" x2="110.44371332441057" y2="5" style="visibility: inherit;" fill="rgb(0, 0, 0)" stroke="rgb(204, 204, 204)" stroke-width="1px"></line><line x1="128.850998878479" y1="0" x2="128.850998878479" y2="5" style="visibility: inherit;" fill="rgb(0, 0, 0)" stroke="rgb(204, 204, 204)" stroke-width="1px"></line><line x1="147.2582844325474" y1="0" x2="147.2582844325474" y2="5" style="visibility: inherit;" fill="rgb(0, 0, 0)" stroke="rgb(204, 204, 204)" stroke-width="1px"></line><line x1="165.66556998661588" y1="0" x2="165.66556998661588" y2="5" style="visibility: inherit;" fill="rgb(0, 0, 0)" stroke="rgb(204, 204, 204)" stroke-width="1px"></line><line x1="184.0728555406843" y1="0" x2="184.0728555406843" y2="5" style="visibility: inherit;" fill="rgb(0, 0, 0)" stroke="rgb(204, 204, 204)" stroke-width="1px"></line><line x1="202.48014109475272" y1="0" x2="202.48014109475272" y2="5" style="visibility: inherit;" fill="rgb(0, 0, 0)" stroke="rgb(204, 204, 204)" stroke-width="1px"></line><line x1="220.88742664882113" y1="0" x2="220.88742664882113" y2="5" style="visibility: inherit;" fill="rgb(0, 0, 0)" stroke="rgb(204, 204, 204)" stroke-width="1px"></line><line x1="239.2947122028896" y1="0" x2="239.2947122028896" y2="5" style="visibility: inherit;" fill="rgb(0, 0, 0)" stroke="rgb(204, 204, 204)" stroke-width="1px"></line><line x1="257.701997756958" y1="0" x2="257.701997756958" y2="5" style="visibility: inherit;" fill="rgb(0, 0, 0)" stroke="rgb(204, 204, 204)" stroke-width="1px"></line></g><g transform="translate(0, 8)"><text style="text-anchor: middle; visibility: hidden; font-family: Roboto, sans-serif; font-size: 12px; font-weight: 200;" x="0" y="0" dx="0em" dy="0.95em" fill="rgb(255, 255, 255)" stroke="none" stroke-width="1px">-5</text><text style="text-anchor: middle; visibility: inherit; font-family: Roboto, sans-serif; font-size: 12px; font-weight: 200;" x="18.407285554068427" y="0" dx="0em" dy="0.95em" fill="rgb(255, 255, 255)" stroke="none" stroke-width="1px">0</text><text style="text-anchor: middle; visibility: hidden; font-family: Roboto, sans-serif; font-size: 12px; font-weight: 200;" x="36.81457110813685" y="0" dx="0em" dy="0.95em" fill="rgb(255, 255, 255)" stroke="none" stroke-width="1px">5</text><text style="text-anchor: middle; visibility: inherit; font-family: Roboto, sans-serif; font-size: 12px; font-weight: 200;" x="55.22185666220528" y="0" dx="0em" dy="0.95em" fill="rgb(255, 255, 255)" stroke="none" stroke-width="1px">10</text><text style="text-anchor: middle; visibility: hidden; font-family: Roboto, sans-serif; font-size: 12px; font-weight: 200;" x="73.6291422162737" y="0" dx="0em" dy="0.95em" fill="rgb(255, 255, 255)" stroke="none" stroke-width="1px">15</text><text style="text-anchor: middle; visibility: inherit; font-family: Roboto, sans-serif; font-size: 12px; font-weight: 200;" x="92.03642777034214" y="0" dx="0em" dy="0.95em" fill="rgb(255, 255, 255)" stroke="none" stroke-width="1px">20</text><text style="text-anchor: middle; visibility: hidden; font-family: Roboto, sans-serif; font-size: 12px; font-weight: 200;" x="110.44371332441057" y="0" dx="0em" dy="0.95em" fill="rgb(255, 255, 255)" stroke="none" stroke-width="1px">25</text><text style="text-anchor: middle; visibility: inherit; font-family: Roboto, sans-serif; font-size: 12px; font-weight: 200;" x="128.850998878479" y="0" dx="0em" dy="0.95em" fill="rgb(255, 255, 255)" stroke="none" stroke-width="1px">30</text><text style="text-anchor: middle; visibility: hidden; font-family: Roboto, sans-serif; font-size: 12px; font-weight: 200;" x="147.2582844325474" y="0" dx="0em" dy="0.95em" fill="rgb(255, 255, 255)" stroke="none" stroke-width="1px">35</text><text style="text-anchor: middle; visibility: inherit; font-family: Roboto, sans-serif; font-size: 12px; font-weight: 200;" x="165.66556998661588" y="0" dx="0em" dy="0.95em" fill="rgb(255, 255, 255)" stroke="none" stroke-width="1px">40</text><text style="text-anchor: middle; visibility: hidden; font-family: Roboto, sans-serif; font-size: 12px; font-weight: 200;" x="184.0728555406843" y="0" dx="0em" dy="0.95em" fill="rgb(255, 255, 255)" stroke="none" stroke-width="1px">45</text><text style="text-anchor: middle; visibility: inherit; font-family: Roboto, sans-serif; font-size: 12px; font-weight: 200;" x="202.48014109475272" y="0" dx="0em" dy="0.95em" fill="rgb(255, 255, 255)" stroke="none" stroke-width="1px">50</text><text style="text-anchor: middle; visibility: hidden; font-family: Roboto, sans-serif; font-size: 12px; font-weight: 200;" x="220.88742664882113" y="0" dx="0em" dy="0.95em" fill="rgb(255, 255, 255)" stroke="none" stroke-width="1px">55</text><text style="text-anchor: middle; visibility: inherit; font-family: Roboto, sans-serif; font-size: 12px; font-weight: 200;" x="239.2947122028896" y="0" dx="0em" dy="0.95em" fill="rgb(255, 255, 255)" stroke="none" stroke-width="1px">60</text><text style="text-anchor: middle; visibility: hidden; font-family: Roboto, sans-serif; font-size: 12px; font-weight: 200;" x="257.701997756958" y="0" dx="0em" dy="0.95em" fill="rgb(255, 255, 255)" stroke="none" stroke-width="1px">65</text></g><line x1="0" y1="0" x2="257.701997756958" y2="0" fill="rgb(0, 0, 0)" stroke="rgb(204, 204, 204)" stroke-width="1px"></line></g></g></g></g></svg>