<svg viewBox="0 0 758.2000122070312 400" xmlns="http://www.w3.org/2000/svg"><g><g><g><g><g><line x1="51.53200149536133" y1="376.55199909210205" x2="46.53200149536133" y2="376.55199909210205" style="visibility: inherit;" fill="rgb(0, 0, 0)" stroke="rgb(204, 204, 204)" stroke-width="1px"></line><line x1="51.53200149536133" y1="342.3199991746382" x2="46.53200149536133" y2="342.3199991746382" style="visibility: inherit;" fill="rgb(0, 0, 0)" stroke="rgb(204, 204, 204)" stroke-width="1px"></line><line x1="51.53200149536133" y1="308.0879992571744" x2="46.53200149536133" y2="308.0879992571744" style="visibility: inherit;" fill="rgb(0, 0, 0)" stroke="rgb(204, 204, 204)" stroke-width="1px"></line><line x1="51.53200149536133" y1="273.8559993397106" x2="46.53200149536133" y2="273.8559993397106" style="visibility: inherit;" fill="rgb(0, 0, 0)" stroke="rgb(204, 204, 204)" stroke-width="1px"></line><line x1="51.53200149536133" y1="239.62399942224675" x2="46.53200149536133" y2="239.62399942224675" style="visibility: inherit;" fill="rgb(0, 0, 0)" stroke="rgb(204, 204, 204)" stroke-width="1px"></line><line x1="51.53200149536133" y1="205.39199950478292" x2="46.53200149536133" y2="205.39199950478292" style="visibility: inherit;" fill="rgb(0, 0, 0)" stroke="rgb(204, 204, 204)" stroke-width="1px"></line><line x1="51.53200149536133" y1="171.15999958731913" x2="46.53200149536133" y2="171.15999958731913" style="visibility: inherit;" fill="rgb(0, 0, 0)" stroke="rgb(204, 204, 204)" stroke-width="1px"></line><line x1="51.53200149536133" y1="136.92799966985532" x2="46.53200149536133" y2="136.92799966985532" style="visibility: inherit;" fill="rgb(0, 0, 0)" stroke="rgb(204, 204, 204)" stroke-width="1px"></line><line x1="51.53200149536133" y1="102.6959997523915" x2="46.53200149536133" y2="102.6959997523915" style="visibility: inherit;" fill="rgb(0, 0, 0)" stroke="rgb(204, 204, 204)" stroke-width="1px"></line><line x1="51.53200149536133" y1="68.46399983492766" x2="46.53200149536133" y2="68.46399983492766" style="visibility: inherit;" fill="rgb(0, 0, 0)" stroke="rgb(204, 204, 204)" stroke-width="1px"></line><line x1="51.53200149536133" y1="34.23199991746383" x2="46.53200149536133" y2="34.23199991746383" style="visibility: inherit;" fill="rgb(0, 0, 0)" stroke="rgb(204, 204, 204)" stroke-width="1px"></line><line x1="51.53200149536133" y1="0" x2="46.53200149536133" y2="0" style="visibility: inherit;" fill="rgb(0, 0, 0)" stroke="rgb(204, 204, 204)" stroke-width="1px"></line></g><g transform="translate(41.53200149536133, 0)"><text style="text-anchor: end; visibility: hidden; font-family: Roboto, sans-serif; font-size: 12px; font-weight: 200;" x="0" y="376.55199909210205" dx="0em" dy="0.3em" fill="rgb(255, 255, 255)" stroke="none" stroke-width="1px">-0.1</text><text style="text-anchor: end; visibility: inherit; font-family: Roboto, sans-serif; font-size: 12px; font-weight: 200;" x="0" y="342.3199991746382" dx="0em" dy="0.3em" fill="rgb(255, 255, 255)" stroke="none" stroke-width="1px">0</text><text style="text-anchor: end; visibility: inherit; font-family: Roboto, sans-serif; font-size: 12px; font-weight: 200;" x="0" y="308.0879992571744" dx="0em" dy="0.3em" fill="rgb(255, 255, 255)" stroke="none" stroke-width="1px">0.1</text><text style="text-anchor: end; visibility: inherit; font-family: Roboto, sans-serif; font-size: 12px; font-weight: 200;" x="0" y="273.8559993397106" dx="0em" dy="0.3em" fill="rgb(255, 255, 255)" stroke="none" stroke-width="1px">0.2</text><text style="text-anchor: end; visibility: inherit; font-family: Roboto, sans-serif; font-size: 12px; font-weight: 200;" x="0" y="239.62399942224675" dx="0em" dy="0.3em" fill="rgb(255, 255, 255)" stroke="none" stroke-width="1px">0.3</text><text style="text-anchor: end; visibility: inherit; font-family: Roboto, sans-serif; font-size: 12px; font-weight: 200;" x="0" y="205.39199950478292" dx="0em" dy="0.3em" fill="rgb(255, 255, 255)" stroke="none" stroke-width="1px">0.4</text><text style="text-anchor: end; visibility: inherit; font-family: Roboto, sans-serif; font-size: 12px; font-weight: 200;" x="0" y="171.15999958731913" dx="0em" dy="0.3em" fill="rgb(255, 255, 255)" stroke="none" stroke-width="1px">0.5</text><text style="text-anchor: end; visibility: inherit; font-family: Roboto, sans-serif; font-size: 12px; font-weight: 200;" x="0" y="136.92799966985532" dx="0em" dy="0.3em" fill="rgb(255, 255, 255)" stroke="none" stroke-width="1px">0.6</text><text style="text-anchor: end; visibility: inherit; font-family: Roboto, sans-serif; font-size: 12px; font-weight: 200;" x="0" y="102.6959997523915" dx="0em" dy="0.3em" fill="rgb(255, 255, 255)" stroke="none" stroke-width="1px">0.7</text><text style="text-anchor: end; visibility: inherit; font-family: Roboto, sans-serif; font-size: 12px; font-weight: 200;" x="0" y="68.46399983492766" dx="0em" dy="0.3em" fill="rgb(255, 255, 255)" stroke="none" stroke-width="1px">0.8</text><text style="text-anchor: end; visibility: inherit; font-family: Roboto, sans-serif; font-size: 12px; font-weight: 200;" x="0" y="34.23199991746383" dx="0em" dy="0.3em" fill="rgb(255, 255, 255)" stroke="none" stroke-width="1px">0.9</text><text style="text-anchor: end; visibility: hidden; font-family: Roboto, sans-serif; font-size: 12px; font-weight: 200;" x="0" y="0" dx="0em" dy="0.3em" fill="rgb(255, 255, 255)" stroke="none" stroke-width="1px">1</text></g><line x1="51.53200149536133" y1="0" x2="51.53200149536133" y2="376.55199909210205" fill="rgb(0, 0, 0)" stroke="rgb(204, 204, 204)" stroke-width="1px"></line></g></g><g transform="translate(51, 0)" clip-path="url(#clip_0)"><clipPath id="clip_0"><rect width="706" height="376"></rect></clipPath><g><g><g><line x1="0" y1="0" x2="0" y2="376.55199909210205" fill="rgb(0, 0, 0)" stroke="rgb(189, 189, 189)" stroke-width="1px" opacity="0.25"></line><line x1="50.47628560747419" y1="0" x2="50.47628560747419" y2="376.55199909210205" fill="rgb(0, 0, 0)" stroke="rgb(189, 189, 189)" stroke-width="1px" opacity="0.25"></line><line x1="100.95257121494838" y1="0" x2="100.95257121494838" y2="376.55199909210205" fill="rgb(0, 0, 0)" stroke="rgb(189, 189, 189)" stroke-width="1px" opacity="0.25"></line><line x1="151.42885682242257" y1="0" x2="151.42885682242257" y2="376.55199909210205" fill="rgb(0, 0, 0)" stroke="rgb(189, 189, 189)" stroke-width="1px" opacity="0.25"></line><line x1="201.90514242989676" y1="0" x2="201.90514242989676" y2="376.55199909210205" fill="rgb(0, 0, 0)" stroke="rgb(189, 189, 189)" stroke-width="1px" opacity="0.25"></line><line x1="252.38142803737097" y1="0" x2="252.38142803737097" y2="376.55199909210205" fill="rgb(0, 0, 0)" stroke="rgb(189, 189, 189)" stroke-width="1px" opacity="0.25"></line><line x1="302.85771364484515" y1="0" x2="302.85771364484515" y2="376.55199909210205" fill="rgb(0, 0, 0)" stroke="rgb(189, 189, 189)" stroke-width="1px" opacity="0.25"></line><line x1="353.33399925231936" y1="0" x2="353.33399925231936" y2="376.55199909210205" fill="rgb(0, 0, 0)" stroke="rgb(189, 189, 189)" stroke-width="1px" opacity="0.25"></line><line x1="403.8102848597935" y1="0" x2="403.8102848597935" y2="376.55199909210205" fill="rgb(0, 0, 0)" stroke="rgb(189, 189, 189)" stroke-width="1px" opacity="0.25"></line><line x1="454.2865704672678" y1="0" x2="454.2865704672678" y2="376.55199909210205" fill="rgb(0, 0, 0)" stroke="rgb(189, 189, 189)" stroke-width="1px" opacity="0.25"></line><line x1="504.76285607474193" y1="0" x2="504.76285607474193" y2="376.55199909210205" fill="rgb(0, 0, 0)" stroke="rgb(189, 189, 189)" stroke-width="1px" opacity="0.25"></line><line x1="555.2391416822161" y1="0" x2="555.2391416822161" y2="376.55199909210205" fill="rgb(0, 0, 0)" stroke="rgb(189, 189, 189)" stroke-width="1px" opacity="0.25"></line><line x1="605.7154272896903" y1="0" x2="605.7154272896903" y2="376.55199909210205" fill="rgb(0, 0, 0)" stroke="rgb(189, 189, 189)" stroke-width="1px" opacity="0.25"></line><line x1="656.1917128971645" y1="0" x2="656.1917128971645" y2="376.55199909210205" fill="rgb(0, 0, 0)" stroke="rgb(189, 189, 189)" stroke-width="1px" opacity="0.25"></line><line x1="706.6679985046387" y1="0" x2="706.6679985046387" y2="376.55199909210205" fill="rgb(0, 0, 0)" stroke="rgb(189, 189, 189)" stroke-width="1px" opacity="0.25"></line></g><g><line x1="0" y1="376.55199909210205" x2="706.6679985046387" y2="376.55199909210205" fill="rgb(0, 0, 0)" stroke="rgb(189, 189, 189)" stroke-width="1px" opacity="0.25"></line><line x1="0" y1="342.3199991746382" x2="706.6679985046387" y2="342.3199991746382" fill="rgb(0, 0, 0)" stroke="rgb(189, 189, 189)" stroke-width="1px" opacity="0.25"></line><line x1="0" y1="308.0879992571744" x2="706.6679985046387" y2="308.0879992571744" fill="rgb(0, 0, 0)" stroke="rgb(189, 189, 189)" stroke-width="1px" opacity="0.25"></line><line x1="0" y1="273.8559993397106" x2="706.6679985046387" y2="273.8559993397106" fill="rgb(0, 0, 0)" stroke="rgb(189, 189, 189)" stroke-width="1px" opacity="0.25"></line><line x1="0" y1="239.62399942224675" x2="706.6679985046387" y2="239.62399942224675" fill="rgb(0, 0, 0)" stroke="rgb(189, 189, 189)" stroke-width="1px" opacity="0.25"></line><line x1="0" y1="205.39199950478292" x2="706.6679985046387" y2="205.39199950478292" fill="rgb(0, 0, 0)" stroke="rgb(189, 189, 189)" stroke-width="1px" opacity="0.25"></line><line x1="0" y1="171.15999958731913" x2="706.6679985046387" y2="171.15999958731913" fill="rgb(0, 0, 0)" stroke="rgb(189, 189, 189)" stroke-width="1px" opacity="0.25"></line><line x1="0" y1="136.92799966985532" x2="706.6679985046387" y2="136.92799966985532" fill="rgb(0, 0, 0)" stroke="rgb(189, 189, 189)" stroke-width="1px" opacity="0.25"></line><line x1="0" y1="102.6959997523915" x2="706.6679985046387" y2="102.6959997523915" fill="rgb(0, 0, 0)" stroke="rgb(189, 189, 189)" stroke-width="1px" opacity="0.25"></line><line x1="0" y1="68.46399983492766" x2="706.6679985046387" y2="68.46399983492766" fill="rgb(0, 0, 0)" stroke="rgb(189, 189, 189)" stroke-width="1px" opacity="0.25"></line><line x1="0" y1="34.23199991746383" x2="706.6679985046387" y2="34.23199991746383" fill="rgb(0, 0, 0)" stroke="rgb(189, 189, 189)" stroke-width="1px" opacity="0.25"></line><line x1="0" y1="0" x2="706.6679985046387" y2="0" fill="rgb(0, 0, 0)" stroke="rgb(189, 189, 189)" stroke-width="1px" opacity="0.25"></line></g></g></g><g><g><line x1="0" y1="342.3199991746382" x2="706.6679985046387" y2="342.3199991746382" fill="rgb(0, 0, 0)" stroke="rgb(153, 153, 153)" stroke-width="1.5px"></line></g></g><g><g><line x1="50.47628560747419" y1="0" x2="50.47628560747419" y2="376.55199909210205" fill="rgb(0, 0, 0)" stroke="rgb(153, 153, 153)" stroke-width="1.5px"></line></g></g><g><g><g><g><g><path style="fill: none;" stroke="rgb(0, 119, 187)" stroke-width="2px" d="M50.47628560747419,342.3199991746382L60.571542728969035,342.3199991746382L70.66679985046387,342.3199991746382L80.76205697195871,342.3199991746382L90.85731409345354,332.19739713950156L100.95257121494838,278.0634786922922L111.04782833644323,90.22318423452138L121.14308545793807,132.5620751474916L131.2383425794329,88.99087258817006L141.33359970092775,151.92705406274564L151.42885682242257,77.01980435874776L161.52411394391743,63.200248255936565L171.61937106541225,74.64318292263687L181.71462818690708,93.21596149380791L191.80988530840193,46.56397981860811L201.90514242989676,71.56240380675864L212.0003995513916,63.816404079112246L222.09565667288646,66.63313681749145L232.1909137943813,49.732781194940046L242.28617091587614,28.43131254970536L252.38142803737097,56.8626250994108L262.4766851588658,30.807913581954324L272.57194228036064,28.95944611242737L282.6671994018555,136.9632085740368L292.76245652335035,30.89593584240799L302.85771364484515,31.160002623768953L312.95297076634,46.38791489383884L323.04822788783486,35.47311378986051L333.14348500932965,27.90317898698339L343.2387421308245,45.68373681020954L353.33399925231936,43.83526934068258L363.42925637381416,29.92769097741768L373.52451349530907,44.80351420567289L383.61977061680386,33.88871310169452L393.7150277382987,39.4341359141374L403.8102848597935,72.26658189038794L413.9055419812884,48.32442502768139L424.0007991027832,33.18453501806522L434.0960562242781,39.96226947685937L444.1913133457729,47.268157902237455L454.2865704672678,44.275380642950886L464.3818275887626,34.5048689248702L474.4770847102574,43.83526934068258L484.5723418317523,45.59571454975587L494.6675989532471,63.376292776843904L504.76285607474193,36.17729187348986L514.8581131962368,38.20182426778608L524.9533703177316,34.59289118532387L535.0486274392265,33.53662405987985L545.1438845607213,31.776158446944635L555.2391416822161,122.08738534578161L565.334398803711,42.95504673614594L575.4296559252058,56.246469276235125L585.5249130467007,46.38791489383884L595.6201701681955,78.95629408872838L605.7154272896903,43.83526934068258L615.8106844111852,31.248024884222623L625.90594153268,67.51335942202809L636.0011986541749,57.74284770394744L646.0964557756697,83.70951655708824L656.1917128971645,68.4816042870184L666.2869700186593,80.89280422257097" fill="none"></path></g><g><path style="fill: none;" stroke="rgb(255, 112, 67)" stroke-width="2px" d="M50.47628560747419,341.9747445099972L60.571542728969035,340.59372581158175L70.66679985046387,338.3495705511919L80.76205697195871,317.63428987570376L90.85731409345354,293.4664662998267L100.95257121494838,291.3949387104934L111.04782833644323,247.54759028353635L121.14308545793807,272.0606727084401L131.2383425794329,212.67686991196598L141.33359970092775,228.55858313050982L151.42885682242257,202.31923706626498L161.52411394391743,193.86048963297014L171.61937106541225,196.7951566934222L181.71462818690708,175.2167464299359L191.80988530840193,158.81715258930012L201.90514242989676,153.29307221645735L212.0003995513916,140.17338898240394L222.09565667288646,126.53583532818958L232.1909137943813,131.02415445684846L242.28617091587614,130.6788803049252L252.38142803737097,110.99937585770708L262.4766851588658,110.13623128562283L272.57194228036064,106.5110567290482L282.6671994018555,103.92166382051941L292.76245652335035,117.21396372667247L302.85771364484515,90.45672683840468L312.95297076634,105.6479325608259L323.04822788783486,92.01035850274957L333.14348500932965,117.38658039877213L343.2387421308245,99.0880909437992L353.33399925231936,93.2187568228951L363.42925637381416,99.77859843992182L373.52451349530907,99.95121511202147L383.61977061680386,98.91545386783757L393.7150277382987,91.66510475468827L403.8102848597935,87.86731352601394L413.9055419812884,131.54202487700945L424.0007991027832,95.11766263916324L434.0960562242781,81.99797940510985L444.1913133457729,83.03374064929375L454.2865704672678,95.46291638722454L464.3818275887626,85.27790021362323L474.4770847102574,99.4333446918605L484.5723418317523,98.22494637171496L494.6675989532471,113.24353542203652L504.76285607474193,97.18918512753106L514.8581131962368,98.0523296996153L524.9533703177316,84.24213896943928L535.0486274392265,76.99178985628998L545.1438845607213,69.9140778191023L555.2391416822161,91.49248808258862L565.334398803711,105.47529548486426L575.4296559252058,111.17199252980673L585.5249130467007,88.90307477019785L595.6201701681955,80.44432733690302L605.7154272896903,93.90926431901771L615.8106844111852,80.61696441286465L625.90594153268,95.80817013528586L636.0011986541749,100.1238521879831L646.0964557756697,107.3742013011324L656.1917128971645,87.17680602989134L666.2869700186593,106.85631047710949" fill="none"></path></g></g></g></g></g></g><g transform="translate(51, 376)" clip-path="url(#clip_1)"><clipPath id="clip_1"><rect width="706" height="23"></rect></clipPath><g><g><line x1="0" y1="0" x2="0" y2="5" style="visibility: inherit;" fill="rgb(0, 0, 0)" stroke="rgb(204, 204, 204)" stroke-width="1px"></line><line x1="50.47628560747419" y1="0" x2="50.47628560747419" y2="5" style="visibility: inherit;" fill="rgb(0, 0, 0)" stroke="rgb(204, 204, 204)" stroke-width="1px"></line><line x1="100.95257121494838" y1="0" x2="100.95257121494838" y2="5" style="visibility: inherit;" fill="rgb(0, 0, 0)" stroke="rgb(204, 204, 204)" stroke-width="1px"></line><line x1="151.42885682242257" y1="0" x2="151.42885682242257" y2="5" style="visibility: inherit;" fill="rgb(0, 0, 0)" stroke="rgb(204, 204, 204)" stroke-width="1px"></line><line x1="201.90514242989676" y1="0" x2="201.90514242989676" y2="5" style="visibility: inherit;" fill="rgb(0, 0, 0)" stroke="rgb(204, 204, 204)" stroke-width="1px"></line><line x1="252.38142803737097" y1="0" x2="252.38142803737097" y2="5" style="visibility: inherit;" fill="rgb(0, 0, 0)" stroke="rgb(204, 204, 204)" stroke-width="1px"></line><line x1="302.85771364484515" y1="0" x2="302.85771364484515" y2="5" style="visibility: inherit;" fill="rgb(0, 0, 0)" stroke="rgb(204, 204, 204)" stroke-width="1px"></line><line x1="353.33399925231936" y1="0" x2="353.33399925231936" y2="5" style="visibility: inherit;" fill="rgb(0, 0, 0)" stroke="rgb(204, 204, 204)" stroke-width="1px"></line><line x1="403.8102848597935" y1="0" x2="403.8102848597935" y2="5" style="visibility: inherit;" fill="rgb(0, 0, 0)" stroke="rgb(204, 204, 204)" stroke-width="1px"></line><line x1="454.2865704672678" y1="0" x2="454.2865704672678" y2="5" style="visibility: inherit;" fill="rgb(0, 0, 0)" stroke="rgb(204, 204, 204)" stroke-width="1px"></line><line x1="504.76285607474193" y1="0" x2="504.76285607474193" y2="5" style="visibility: inherit;" fill="rgb(0, 0, 0)" stroke="rgb(204, 204, 204)" stroke-width="1px"></line><line x1="555.2391416822161" y1="0" x2="555.2391416822161" y2="5" style="visibility: inherit;" fill="rgb(0, 0, 0)" stroke="rgb(204, 204, 204)" stroke-width="1px"></line><line x1="605.7154272896903" y1="0" x2="605.7154272896903" y2="5" style="visibility: inherit;" fill="rgb(0, 0, 0)" stroke="rgb(204, 204, 204)" stroke-width="1px"></line><line x1="656.1917128971645" y1="0" x2="656.1917128971645" y2="5" style="visibility: inherit;" fill="rgb(0, 0, 0)" stroke="rgb(204, 204, 204)" stroke-width="1px"></line><line x1="706.6679985046387" y1="0" x2="706.6679985046387" y2="5" style="visibility: inherit;" fill="rgb(0, 0, 0)" stroke="rgb(204, 204, 204)" stroke-width="1px"></line></g><g transform="translate(0, 8)"><text style="text-anchor: middle; visibility: hidden; font-family: Roboto, sans-serif; font-size: 12px; font-weight: 200;" x="0" y="0" dx="0em" dy="0.95em" fill="rgb(255, 255, 255)" stroke="none" stroke-width="1px">-5</text><text style="text-anchor: middle; visibility: inherit; font-family: Roboto, sans-serif; font-size: 12px; font-weight: 200;" x="50.47628560747419" y="0" dx="0em" dy="0.95em" fill="rgb(255, 255, 255)" stroke="none" stroke-width="1px">0</text><text style="text-anchor: middle; visibility: inherit; font-family: Roboto, sans-serif; font-size: 12px; font-weight: 200;" x="100.95257121494838" y="0" dx="0em" dy="0.95em" fill="rgb(255, 255, 255)" stroke="none" stroke-width="1px">5</text><text style="text-anchor: middle; visibility: inherit; font-family: Roboto, sans-serif; font-size: 12px; font-weight: 200;" x="151.42885682242257" y="0" dx="0em" dy="0.95em" fill="rgb(255, 255, 255)" stroke="none" stroke-width="1px">10</text><text style="text-anchor: middle; visibility: inherit; font-family: Roboto, sans-serif; font-size: 12px; font-weight: 200;" x="201.90514242989676" y="0" dx="0em" dy="0.95em" fill="rgb(255, 255, 255)" stroke="none" stroke-width="1px">15</text><text style="text-anchor: middle; visibility: inherit; font-family: Roboto, sans-serif; font-size: 12px; font-weight: 200;" x="252.38142803737097" y="0" dx="0em" dy="0.95em" fill="rgb(255, 255, 255)" stroke="none" stroke-width="1px">20</text><text style="text-anchor: middle; visibility: inherit; font-family: Roboto, sans-serif; font-size: 12px; font-weight: 200;" x="302.85771364484515" y="0" dx="0em" dy="0.95em" fill="rgb(255, 255, 255)" stroke="none" stroke-width="1px">25</text><text style="text-anchor: middle; visibility: inherit; font-family: Roboto, sans-serif; font-size: 12px; font-weight: 200;" x="353.33399925231936" y="0" dx="0em" dy="0.95em" fill="rgb(255, 255, 255)" stroke="none" stroke-width="1px">30</text><text style="text-anchor: middle; visibility: inherit; font-family: Roboto, sans-serif; font-size: 12px; font-weight: 200;" x="403.8102848597935" y="0" dx="0em" dy="0.95em" fill="rgb(255, 255, 255)" stroke="none" stroke-width="1px">35</text><text style="text-anchor: middle; visibility: inherit; font-family: Roboto, sans-serif; font-size: 12px; font-weight: 200;" x="454.2865704672678" y="0" dx="0em" dy="0.95em" fill="rgb(255, 255, 255)" stroke="none" stroke-width="1px">40</text><text style="text-anchor: middle; visibility: inherit; font-family: Roboto, sans-serif; font-size: 12px; font-weight: 200;" x="504.76285607474193" y="0" dx="0em" dy="0.95em" fill="rgb(255, 255, 255)" stroke="none" stroke-width="1px">45</text><text style="text-anchor: middle; visibility: inherit; font-family: Roboto, sans-serif; font-size: 12px; font-weight: 200;" x="555.2391416822161" y="0" dx="0em" dy="0.95em" fill="rgb(255, 255, 255)" stroke="none" stroke-width="1px">50</text><text style="text-anchor: middle; visibility: inherit; font-family: Roboto, sans-serif; font-size: 12px; font-weight: 200;" x="605.7154272896903" y="0" dx="0em" dy="0.95em" fill="rgb(255, 255, 255)" stroke="none" stroke-width="1px">55</text><text style="text-anchor: middle; visibility: inherit; font-family: Roboto, sans-serif; font-size: 12px; font-weight: 200;" x="656.1917128971645" y="0" dx="0em" dy="0.95em" fill="rgb(255, 255, 255)" stroke="none" stroke-width="1px">60</text><text style="text-anchor: middle; visibility: hidden; font-family: Roboto, sans-serif; font-size: 12px; font-weight: 200;" x="706.6679985046387" y="0" dx="0em" dy="0.95em" fill="rgb(255, 255, 255)" stroke="none" stroke-width="1px">65</text></g><line x1="0" y1="0" x2="706.6679985046387" y2="0" fill="rgb(0, 0, 0)" stroke="rgb(204, 204, 204)" stroke-width="1px"></line></g></g></g></g></svg>