<svg viewBox="0 0 330 200" xmlns="http://www.w3.org/2000/svg"><g><g><g><g><g><line x1="49.98400115966797" y1="177.60799980163574" x2="44.98400115966797" y2="177.60799980163574" style="visibility: inherit;" fill="rgb(0, 0, 0)" stroke="rgb(204, 204, 204)" stroke-width="1px"></line><line x1="49.98400115966797" y1="152.2354284014021" x2="44.98400115966797" y2="152.2354284014021" style="visibility: inherit;" fill="rgb(0, 0, 0)" stroke="rgb(204, 204, 204)" stroke-width="1px"></line><line x1="49.98400115966797" y1="126.86285700116841" x2="44.98400115966797" y2="126.86285700116841" style="visibility: inherit;" fill="rgb(0, 0, 0)" stroke="rgb(204, 204, 204)" stroke-width="1px"></line><line x1="49.98400115966797" y1="101.4902856009347" x2="44.98400115966797" y2="101.4902856009347" style="visibility: inherit;" fill="rgb(0, 0, 0)" stroke="rgb(204, 204, 204)" stroke-width="1px"></line><line x1="49.98400115966797" y1="76.11771420070106" x2="44.98400115966797" y2="76.11771420070106" style="visibility: inherit;" fill="rgb(0, 0, 0)" stroke="rgb(204, 204, 204)" stroke-width="1px"></line><line x1="49.98400115966797" y1="50.74514280046735" x2="44.98400115966797" y2="50.74514280046735" style="visibility: inherit;" fill="rgb(0, 0, 0)" stroke="rgb(204, 204, 204)" stroke-width="1px"></line><line x1="49.98400115966797" y1="25.372571400233706" x2="44.98400115966797" y2="25.372571400233706" style="visibility: inherit;" fill="rgb(0, 0, 0)" stroke="rgb(204, 204, 204)" stroke-width="1px"></line><line x1="49.98400115966797" y1="0" x2="44.98400115966797" y2="0" style="visibility: inherit;" fill="rgb(0, 0, 0)" stroke="rgb(204, 204, 204)" stroke-width="1px"></line></g><g transform="translate(39.98400115966797, 0)"><text style="text-anchor: end; visibility: hidden; font-family: Roboto, sans-serif; font-size: 12px; font-weight: 200;" x="0" y="177.60799980163574" dx="0em" dy="0.3em" fill="rgb(255, 255, 255)" stroke="none" stroke-width="1px">0.65</text><text style="text-anchor: end; visibility: inherit; font-family: Roboto, sans-serif; font-size: 12px; font-weight: 200;" x="0" y="152.2354284014021" dx="0em" dy="0.3em" fill="rgb(255, 255, 255)" stroke="none" stroke-width="1px">0.7</text><text style="text-anchor: end; visibility: inherit; font-family: Roboto, sans-serif; font-size: 12px; font-weight: 200;" x="0" y="126.86285700116841" dx="0em" dy="0.3em" fill="rgb(255, 255, 255)" stroke="none" stroke-width="1px">0.75</text><text style="text-anchor: end; visibility: inherit; font-family: Roboto, sans-serif; font-size: 12px; font-weight: 200;" x="0" y="101.4902856009347" dx="0em" dy="0.3em" fill="rgb(255, 255, 255)" stroke="none" stroke-width="1px">0.8</text><text style="text-anchor: end; visibility: inherit; font-family: Roboto, sans-serif; font-size: 12px; font-weight: 200;" x="0" y="76.11771420070106" dx="0em" dy="0.3em" fill="rgb(255, 255, 255)" stroke="none" stroke-width="1px">0.85</text><text style="text-anchor: end; visibility: inherit; font-family: Roboto, sans-serif; font-size: 12px; font-weight: 200;" x="0" y="50.74514280046735" dx="0em" dy="0.3em" fill="rgb(255, 255, 255)" stroke="none" stroke-width="1px">0.9</text><text style="text-anchor: end; visibility: inherit; font-family: Roboto, sans-serif; font-size: 12px; font-weight: 200;" x="0" y="25.372571400233706" dx="0em" dy="0.3em" fill="rgb(255, 255, 255)" stroke="none" stroke-width="1px">0.95</text><text style="text-anchor: end; visibility: hidden; font-family: Roboto, sans-serif; font-size: 12px; font-weight: 200;" x="0" y="0" dx="0em" dy="0.3em" fill="rgb(255, 255, 255)" stroke="none" stroke-width="1px">1</text></g><line x1="49.98400115966797" y1="0" x2="49.98400115966797" y2="177.60799980163574" fill="rgb(0, 0, 0)" stroke="rgb(204, 204, 204)" stroke-width="1px"></line></g></g><g transform="translate(49, 0)" clip-path="url(#clip_0)"><clipPath id="clip_0"><rect width="280" height="177"></rect></clipPath><g><g><g><line x1="0" y1="0" x2="0" y2="177.60799980163574" fill="rgb(0, 0, 0)" stroke="rgb(189, 189, 189)" stroke-width="1px" opacity="0.25"></line><line x1="20.00114277430943" y1="0" x2="20.00114277430943" y2="177.60799980163574" fill="rgb(0, 0, 0)" stroke="rgb(189, 189, 189)" stroke-width="1px" opacity="0.25"></line><line x1="40.00228554861886" y1="0" x2="40.00228554861886" y2="177.60799980163574" fill="rgb(0, 0, 0)" stroke="rgb(189, 189, 189)" stroke-width="1px" opacity="0.25"></line><line x1="60.003428322928286" y1="0" x2="60.003428322928286" y2="177.60799980163574" fill="rgb(0, 0, 0)" stroke="rgb(189, 189, 189)" stroke-width="1px" opacity="0.25"></line><line x1="80.00457109723772" y1="0" x2="80.00457109723772" y2="177.60799980163574" fill="rgb(0, 0, 0)" stroke="rgb(189, 189, 189)" stroke-width="1px" opacity="0.25"></line><line x1="100.00571387154716" y1="0" x2="100.00571387154716" y2="177.60799980163574" fill="rgb(0, 0, 0)" stroke="rgb(189, 189, 189)" stroke-width="1px" opacity="0.25"></line><line x1="120.00685664585657" y1="0" x2="120.00685664585657" y2="177.60799980163574" fill="rgb(0, 0, 0)" stroke="rgb(189, 189, 189)" stroke-width="1px" opacity="0.25"></line><line x1="140.00799942016602" y1="0" x2="140.00799942016602" y2="177.60799980163574" fill="rgb(0, 0, 0)" stroke="rgb(189, 189, 189)" stroke-width="1px" opacity="0.25"></line><line x1="160.00914219447543" y1="0" x2="160.00914219447543" y2="177.60799980163574" fill="rgb(0, 0, 0)" stroke="rgb(189, 189, 189)" stroke-width="1px" opacity="0.25"></line><line x1="180.0102849687849" y1="0" x2="180.0102849687849" y2="177.60799980163574" fill="rgb(0, 0, 0)" stroke="rgb(189, 189, 189)" stroke-width="1px" opacity="0.25"></line><line x1="200.01142774309432" y1="0" x2="200.01142774309432" y2="177.60799980163574" fill="rgb(0, 0, 0)" stroke="rgb(189, 189, 189)" stroke-width="1px" opacity="0.25"></line><line x1="220.01257051740373" y1="0" x2="220.01257051740373" y2="177.60799980163574" fill="rgb(0, 0, 0)" stroke="rgb(189, 189, 189)" stroke-width="1px" opacity="0.25"></line><line x1="240.01371329171315" y1="0" x2="240.01371329171315" y2="177.60799980163574" fill="rgb(0, 0, 0)" stroke="rgb(189, 189, 189)" stroke-width="1px" opacity="0.25"></line><line x1="260.0148560660226" y1="0" x2="260.0148560660226" y2="177.60799980163574" fill="rgb(0, 0, 0)" stroke="rgb(189, 189, 189)" stroke-width="1px" opacity="0.25"></line><line x1="280.01599884033203" y1="0" x2="280.01599884033203" y2="177.60799980163574" fill="rgb(0, 0, 0)" stroke="rgb(189, 189, 189)" stroke-width="1px" opacity="0.25"></line></g><g><line x1="0" y1="177.60799980163574" x2="280.01599884033203" y2="177.60799980163574" fill="rgb(0, 0, 0)" stroke="rgb(189, 189, 189)" stroke-width="1px" opacity="0.25"></line><line x1="0" y1="152.2354284014021" x2="280.01599884033203" y2="152.2354284014021" fill="rgb(0, 0, 0)" stroke="rgb(189, 189, 189)" stroke-width="1px" opacity="0.25"></line><line x1="0" y1="126.86285700116841" x2="280.01599884033203" y2="126.86285700116841" fill="rgb(0, 0, 0)" stroke="rgb(189, 189, 189)" stroke-width="1px" opacity="0.25"></line><line x1="0" y1="101.4902856009347" x2="280.01599884033203" y2="101.4902856009347" fill="rgb(0, 0, 0)" stroke="rgb(189, 189, 189)" stroke-width="1px" opacity="0.25"></line><line x1="0" y1="76.11771420070106" x2="280.01599884033203" y2="76.11771420070106" fill="rgb(0, 0, 0)" stroke="rgb(189, 189, 189)" stroke-width="1px" opacity="0.25"></line><line x1="0" y1="50.74514280046735" x2="280.01599884033203" y2="50.74514280046735" fill="rgb(0, 0, 0)" stroke="rgb(189, 189, 189)" stroke-width="1px" opacity="0.25"></line><line x1="0" y1="25.372571400233706" x2="280.01599884033203" y2="25.372571400233706" fill="rgb(0, 0, 0)" stroke="rgb(189, 189, 189)" stroke-width="1px" opacity="0.25"></line><line x1="0" y1="0" x2="280.01599884033203" y2="0" fill="rgb(0, 0, 0)" stroke="rgb(189, 189, 189)" stroke-width="1px" opacity="0.25"></line></g></g></g><g><g><line x1="0" y1="507.45142800467363" x2="280.01599884033203" y2="507.45142800467363" fill="rgb(0, 0, 0)" stroke="rgb(153, 153, 153)" stroke-width="1.5px"></line></g></g><g><g><line x1="20.00114277430943" y1="0" x2="20.00114277430943" y2="177.60799980163574" fill="rgb(0, 0, 0)" stroke="rgb(153, 153, 153)" stroke-width="1.5px"></line></g></g><g><g><g><g><g><path style="fill: none;" stroke="rgb(0, 119, 187)" stroke-width="2px" d="M20.00114277430943,166.0049850925881L24.001371329171317,145.97653404689646L28.001599884033205,127.00728385772922L32.00182843889509,142.41377302885277L36.00205699375697,105.14931505857248L40.00228554861886,95.0388301700712L44.00251410348075,67.40342415093535L48.00274265834263,51.65989865255369L52.002971213204525,45.73803457601375L56.00319976806641,46.556503840628736L60.003428322928286,42.65673674178906L64.00365687779018,74.9140743890309L68.00388543265207,42.75301123067559L72.00411398751395,42.65673674178906L76.00434254237584,58.111378280586905L80.00457109723772,51.27474020408338L84.0047996520996,34.37573936029075L88.0050282069615,29.224192180691464L92.00525676182338,23.63933418494753L96.00548531668527,65.81460774291763L100.00571387154716,25.75773589799642L104.00594242640905,34.85720254410971L108.00617098127093,70.53287435283437L112.00639953613282,49.15633849103447L116.00662809099471,59.026122034088395L120.00685664585657,25.179998225290934L124.00708520071846,25.80588826567075L128.00731375558036,28.261296059515644L132.00754231044223,109.91570378970145L136.00777086530414,38.13107960256957L140.00799942016602,21.08765190221609L144.0082279750279,33.942428544146104L148.0084565298898,28.261296059515644L152.00868508475168,31.24628915839171L156.00891363961355,28.16499132416702L160.00914219447543,31.29444152606604L164.00937074933734,23.350480471825836L168.0095993041992,32.786953198735134L172.00982785906112,22.339431982975704L176.010056413923,51.226587836409045L180.0102849687849,23.25417573647721L184.01051352364675,26.142894346466754L188.01074207850863,23.97637051220565L192.01097063337053,68.12558868020169L196.0111991882324,33.027684790644614L200.01142774309432,30.861130709921394L204.0116562979562,22.435706471862247L208.0118848528181,23.25417573647721L212.01211340767995,22.869017288006876L216.01234196254185,20.60618871839713L220.01257051740373,52.863526365639L224.01279907226564,25.709583530322107L228.0130276271275,19.306256269963207L232.01325618198942,22.146822512278437L236.0134847368513,33.07580691185681L240.01371329171315,30.475972261451076L244.01394184657505,24.60226055258545L248.01417040143693,25.950315122231586L252.01439895629883,31.67959997453636L256.0146275111607,36.78299478646134L260.0148560660226,27.635406019135846L264.01508462088447,35.386787849140866" fill="none"></path></g><g><path style="fill: none;" stroke="rgb(255, 112, 67)" stroke-width="2px" d="M20.00114277430943,51.05006948355269L24.001371329171317,43.073986686554896L28.001599884033205,37.152122610014956L32.00182843889509,32.786953198735134L36.00205699375697,28.261296059515644L40.00228554861886,27.892168235962025L44.00251410348075,25.051601993646795L48.00274265834263,24.89111426570714L52.002971213204525,24.618291177502147L56.00319976806641,27.699589011726857L60.003428322928286,24.698535041471974L64.00365687779018,22.72459043144604L68.00388543265207,24.682474170093176L72.00411398751395,24.1689497364408L76.00434254237584,24.84296189803283L80.00457109723772,23.478846457007876L84.0047996520996,21.777724935186917L88.0050282069615,20.814828814011115L92.00525676182338,21.183926391102634L96.00548531668527,21.103682527132808L100.00571387154716,19.16182941340237L104.00594242640905,19.017402556841514L108.00617098127093,19.81981095007768L112.00639953613282,18.56803086931807L116.00662809099471,20.60618871839713L120.00685664585657,18.56803086931807L124.00708520071846,19.53092699049389L128.00731375558036,18.118689428256722L132.00754231044223,20.108694909661473L136.00777086530414,17.781653100998618L140.00799942016602,17.17182393199762L144.0082279750279,18.166811549468935L148.0084565298898,19.434652501607363L152.00868508475168,17.71747010840759L156.00891363961355,17.621165373058965L160.00914219447543,16.947153211466937L164.00937074933734,23.222084240181697L168.0095993041992,18.519878501643756L172.00982785906112,17.059488571732278L176.010056413923,16.289171674791625L180.0102849687849,18.535939373022554L184.01051352364675,18.166811549468935L188.01074207850863,19.03343318175823L192.01097063337053,17.974232325233768L196.0111991882324,22.467797968157743L200.01142774309432,17.4125555239071L204.0116562979562,17.47673851649811L208.0118848528181,16.73851311585297L212.01211340767995,15.534885402767689L216.01234196254185,14.186800586659434L220.01257051740373,16.658269251883144L224.01279907226564,19.675384093516843L228.0130276271275,18.92109782149289L232.01325618198942,17.990293196612583L236.0134847368513,14.92505623376669L240.01371329171315,16.160775443147486L244.01394184657505,15.807708490972665L248.01417040143693,17.33231165993727L252.01439895629883,19.980298678017334L256.0146275111607,20.156817030873686L260.0148560660226,17.203915428293133L264.01508462088447,20.7987679426323" fill="none"></path></g></g></g></g></g></g><g transform="translate(49, 177)" clip-path="url(#clip_1)"><clipPath id="clip_1"><rect width="280" height="22"></rect></clipPath><g><g><line x1="0" y1="0" x2="0" y2="5" style="visibility: inherit;" fill="rgb(0, 0, 0)" stroke="rgb(204, 204, 204)" stroke-width="1px"></line><line x1="20.00114277430943" y1="0" x2="20.00114277430943" y2="5" style="visibility: inherit;" fill="rgb(0, 0, 0)" stroke="rgb(204, 204, 204)" stroke-width="1px"></line><line x1="40.00228554861886" y1="0" x2="40.00228554861886" y2="5" style="visibility: inherit;" fill="rgb(0, 0, 0)" stroke="rgb(204, 204, 204)" stroke-width="1px"></line><line x1="60.003428322928286" y1="0" x2="60.003428322928286" y2="5" style="visibility: inherit;" fill="rgb(0, 0, 0)" stroke="rgb(204, 204, 204)" stroke-width="1px"></line><line x1="80.00457109723772" y1="0" x2="80.00457109723772" y2="5" style="visibility: inherit;" fill="rgb(0, 0, 0)" stroke="rgb(204, 204, 204)" stroke-width="1px"></line><line x1="100.00571387154716" y1="0" x2="100.00571387154716" y2="5" style="visibility: inherit;" fill="rgb(0, 0, 0)" stroke="rgb(204, 204, 204)" stroke-width="1px"></line><line x1="120.00685664585657" y1="0" x2="120.00685664585657" y2="5" style="visibility: inherit;" fill="rgb(0, 0, 0)" stroke="rgb(204, 204, 204)" stroke-width="1px"></line><line x1="140.00799942016602" y1="0" x2="140.00799942016602" y2="5" style="visibility: inherit;" fill="rgb(0, 0, 0)" stroke="rgb(204, 204, 204)" stroke-width="1px"></line><line x1="160.00914219447543" y1="0" x2="160.00914219447543" y2="5" style="visibility: inherit;" fill="rgb(0, 0, 0)" stroke="rgb(204, 204, 204)" stroke-width="1px"></line><line x1="180.0102849687849" y1="0" x2="180.0102849687849" y2="5" style="visibility: inherit;" fill="rgb(0, 0, 0)" stroke="rgb(204, 204, 204)" stroke-width="1px"></line><line x1="200.01142774309432" y1="0" x2="200.01142774309432" y2="5" style="visibility: inherit;" fill="rgb(0, 0, 0)" stroke="rgb(204, 204, 204)" stroke-width="1px"></line><line x1="220.01257051740373" y1="0" x2="220.01257051740373" y2="5" style="visibility: inherit;" fill="rgb(0, 0, 0)" stroke="rgb(204, 204, 204)" stroke-width="1px"></line><line x1="240.01371329171315" y1="0" x2="240.01371329171315" y2="5" style="visibility: inherit;" fill="rgb(0, 0, 0)" stroke="rgb(204, 204, 204)" stroke-width="1px"></line><line x1="260.0148560660226" y1="0" x2="260.0148560660226" y2="5" style="visibility: inherit;" fill="rgb(0, 0, 0)" stroke="rgb(204, 204, 204)" stroke-width="1px"></line><line x1="280.01599884033203" y1="0" x2="280.01599884033203" y2="5" style="visibility: inherit;" fill="rgb(0, 0, 0)" stroke="rgb(204, 204, 204)" stroke-width="1px"></line></g><g transform="translate(0, 8)"><text style="text-anchor: middle; visibility: hidden; font-family: Roboto, sans-serif; font-size: 12px; font-weight: 200;" x="0" y="0" dx="0em" dy="0.95em" fill="rgb(255, 255, 255)" stroke="none" stroke-width="1px">-5</text><text style="text-anchor: middle; visibility: inherit; font-family: Roboto, sans-serif; font-size: 12px; font-weight: 200;" x="20.00114277430943" y="0" dx="0em" dy="0.95em" fill="rgb(255, 255, 255)" stroke="none" stroke-width="1px">0</text><text style="text-anchor: middle; visibility: inherit; font-family: Roboto, sans-serif; font-size: 12px; font-weight: 200;" x="40.00228554861886" y="0" dx="0em" dy="0.95em" fill="rgb(255, 255, 255)" stroke="none" stroke-width="1px">5</text><text style="text-anchor: middle; visibility: inherit; font-family: Roboto, sans-serif; font-size: 12px; font-weight: 200;" x="60.003428322928286" y="0" dx="0em" dy="0.95em" fill="rgb(255, 255, 255)" stroke="none" stroke-width="1px">10</text><text style="text-anchor: middle; visibility: inherit; font-family: Roboto, sans-serif; font-size: 12px; font-weight: 200;" x="80.00457109723772" y="0" dx="0em" dy="0.95em" fill="rgb(255, 255, 255)" stroke="none" stroke-width="1px">15</text><text style="text-anchor: middle; visibility: inherit; font-family: Roboto, sans-serif; font-size: 12px; font-weight: 200;" x="100.00571387154716" y="0" dx="0em" dy="0.95em" fill="rgb(255, 255, 255)" stroke="none" stroke-width="1px">20</text><text style="text-anchor: middle; visibility: inherit; font-family: Roboto, sans-serif; font-size: 12px; font-weight: 200;" x="120.00685664585657" y="0" dx="0em" dy="0.95em" fill="rgb(255, 255, 255)" stroke="none" stroke-width="1px">25</text><text style="text-anchor: middle; visibility: inherit; font-family: Roboto, sans-serif; font-size: 12px; font-weight: 200;" x="140.00799942016602" y="0" dx="0em" dy="0.95em" fill="rgb(255, 255, 255)" stroke="none" stroke-width="1px">30</text><text style="text-anchor: middle; visibility: inherit; font-family: Roboto, sans-serif; font-size: 12px; font-weight: 200;" x="160.00914219447543" y="0" dx="0em" dy="0.95em" fill="rgb(255, 255, 255)" stroke="none" stroke-width="1px">35</text><text style="text-anchor: middle; visibility: inherit; font-family: Roboto, sans-serif; font-size: 12px; font-weight: 200;" x="180.0102849687849" y="0" dx="0em" dy="0.95em" fill="rgb(255, 255, 255)" stroke="none" stroke-width="1px">40</text><text style="text-anchor: middle; visibility: inherit; font-family: Roboto, sans-serif; font-size: 12px; font-weight: 200;" x="200.01142774309432" y="0" dx="0em" dy="0.95em" fill="rgb(255, 255, 255)" stroke="none" stroke-width="1px">45</text><text style="text-anchor: middle; visibility: inherit; font-family: Roboto, sans-serif; font-size: 12px; font-weight: 200;" x="220.01257051740373" y="0" dx="0em" dy="0.95em" fill="rgb(255, 255, 255)" stroke="none" stroke-width="1px">50</text><text style="text-anchor: middle; visibility: inherit; font-family: Roboto, sans-serif; font-size: 12px; font-weight: 200;" x="240.01371329171315" y="0" dx="0em" dy="0.95em" fill="rgb(255, 255, 255)" stroke="none" stroke-width="1px">55</text><text style="text-anchor: middle; visibility: inherit; font-family: Roboto, sans-serif; font-size: 12px; font-weight: 200;" x="260.0148560660226" y="0" dx="0em" dy="0.95em" fill="rgb(255, 255, 255)" stroke="none" stroke-width="1px">60</text><text style="text-anchor: middle; visibility: hidden; font-family: Roboto, sans-serif; font-size: 12px; font-weight: 200;" x="280.01599884033203" y="0" dx="0em" dy="0.95em" fill="rgb(255, 255, 255)" stroke="none" stroke-width="1px">65</text></g><line x1="0" y1="0" x2="280.01599884033203" y2="0" fill="rgb(0, 0, 0)" stroke="rgb(204, 204, 204)" stroke-width="1px"></line></g></g></g></g></svg>