<svg viewBox="0 0 758.2000122070312 400" xmlns="http://www.w3.org/2000/svg"><g><g><g><g><g><line x1="51.53200149536133" y1="376.55199909210205" x2="46.53200149536133" y2="376.55199909210205" style="visibility: inherit;" fill="rgb(0, 0, 0)" stroke="rgb(204, 204, 204)" stroke-width="1px"></line><line x1="51.53200149536133" y1="329.48299920558924" x2="46.53200149536133" y2="329.48299920558924" style="visibility: inherit;" fill="rgb(0, 0, 0)" stroke="rgb(204, 204, 204)" stroke-width="1px"></line><line x1="51.53200149536133" y1="282.41399931907654" x2="46.53200149536133" y2="282.41399931907654" style="visibility: inherit;" fill="rgb(0, 0, 0)" stroke="rgb(204, 204, 204)" stroke-width="1px"></line><line x1="51.53200149536133" y1="235.34499943256378" x2="46.53200149536133" y2="235.34499943256378" style="visibility: inherit;" fill="rgb(0, 0, 0)" stroke="rgb(204, 204, 204)" stroke-width="1px"></line><line x1="51.53200149536133" y1="188.275999546051" x2="46.53200149536133" y2="188.275999546051" style="visibility: inherit;" fill="rgb(0, 0, 0)" stroke="rgb(204, 204, 204)" stroke-width="1px"></line><line x1="51.53200149536133" y1="141.20699965953827" x2="46.53200149536133" y2="141.20699965953827" style="visibility: inherit;" fill="rgb(0, 0, 0)" stroke="rgb(204, 204, 204)" stroke-width="1px"></line><line x1="51.53200149536133" y1="94.13799977302547" x2="46.53200149536133" y2="94.13799977302547" style="visibility: inherit;" fill="rgb(0, 0, 0)" stroke="rgb(204, 204, 204)" stroke-width="1px"></line><line x1="51.53200149536133" y1="47.0689998865128" x2="46.53200149536133" y2="47.0689998865128" style="visibility: inherit;" fill="rgb(0, 0, 0)" stroke="rgb(204, 204, 204)" stroke-width="1px"></line><line x1="51.53200149536133" y1="0" x2="46.53200149536133" y2="0" style="visibility: inherit;" fill="rgb(0, 0, 0)" stroke="rgb(204, 204, 204)" stroke-width="1px"></line></g><g transform="translate(41.53200149536133, 0)"><text style="text-anchor: end; visibility: hidden; font-family: Roboto, sans-serif; font-size: 12px; font-weight: 200;" x="0" y="376.55199909210205" dx="0em" dy="0.3em" fill="rgb(255, 255, 255)" stroke="none" stroke-width="1px">0.6</text><text style="text-anchor: end; visibility: inherit; font-family: Roboto, sans-serif; font-size: 12px; font-weight: 200;" x="0" y="329.48299920558924" dx="0em" dy="0.3em" fill="rgb(255, 255, 255)" stroke="none" stroke-width="1px">0.65</text><text style="text-anchor: end; visibility: inherit; font-family: Roboto, sans-serif; font-size: 12px; font-weight: 200;" x="0" y="282.41399931907654" dx="0em" dy="0.3em" fill="rgb(255, 255, 255)" stroke="none" stroke-width="1px">0.7</text><text style="text-anchor: end; visibility: inherit; font-family: Roboto, sans-serif; font-size: 12px; font-weight: 200;" x="0" y="235.34499943256378" dx="0em" dy="0.3em" fill="rgb(255, 255, 255)" stroke="none" stroke-width="1px">0.75</text><text style="text-anchor: end; visibility: inherit; font-family: Roboto, sans-serif; font-size: 12px; font-weight: 200;" x="0" y="188.275999546051" dx="0em" dy="0.3em" fill="rgb(255, 255, 255)" stroke="none" stroke-width="1px">0.8</text><text style="text-anchor: end; visibility: inherit; font-family: Roboto, sans-serif; font-size: 12px; font-weight: 200;" x="0" y="141.20699965953827" dx="0em" dy="0.3em" fill="rgb(255, 255, 255)" stroke="none" stroke-width="1px">0.85</text><text style="text-anchor: end; visibility: inherit; font-family: Roboto, sans-serif; font-size: 12px; font-weight: 200;" x="0" y="94.13799977302547" dx="0em" dy="0.3em" fill="rgb(255, 255, 255)" stroke="none" stroke-width="1px">0.9</text><text style="text-anchor: end; visibility: inherit; font-family: Roboto, sans-serif; font-size: 12px; font-weight: 200;" x="0" y="47.0689998865128" dx="0em" dy="0.3em" fill="rgb(255, 255, 255)" stroke="none" stroke-width="1px">0.95</text><text style="text-anchor: end; visibility: hidden; font-family: Roboto, sans-serif; font-size: 12px; font-weight: 200;" x="0" y="0" dx="0em" dy="0.3em" fill="rgb(255, 255, 255)" stroke="none" stroke-width="1px">1</text></g><line x1="51.53200149536133" y1="0" x2="51.53200149536133" y2="376.55199909210205" fill="rgb(0, 0, 0)" stroke="rgb(204, 204, 204)" stroke-width="1px"></line></g></g><g transform="translate(51, 0)" clip-path="url(#clip_0)"><clipPath id="clip_0"><rect width="706" height="376"></rect></clipPath><g><g><g><line x1="0" y1="0" x2="0" y2="376.55199909210205" fill="rgb(0, 0, 0)" stroke="rgb(189, 189, 189)" stroke-width="1px" opacity="0.25"></line><line x1="50.47628560747419" y1="0" x2="50.47628560747419" y2="376.55199909210205" fill="rgb(0, 0, 0)" stroke="rgb(189, 189, 189)" stroke-width="1px" opacity="0.25"></line><line x1="100.95257121494838" y1="0" x2="100.95257121494838" y2="376.55199909210205" fill="rgb(0, 0, 0)" stroke="rgb(189, 189, 189)" stroke-width="1px" opacity="0.25"></line><line x1="151.42885682242257" y1="0" x2="151.42885682242257" y2="376.55199909210205" fill="rgb(0, 0, 0)" stroke="rgb(189, 189, 189)" stroke-width="1px" opacity="0.25"></line><line x1="201.90514242989676" y1="0" x2="201.90514242989676" y2="376.55199909210205" fill="rgb(0, 0, 0)" stroke="rgb(189, 189, 189)" stroke-width="1px" opacity="0.25"></line><line x1="252.38142803737097" y1="0" x2="252.38142803737097" y2="376.55199909210205" fill="rgb(0, 0, 0)" stroke="rgb(189, 189, 189)" stroke-width="1px" opacity="0.25"></line><line x1="302.85771364484515" y1="0" x2="302.85771364484515" y2="376.55199909210205" fill="rgb(0, 0, 0)" stroke="rgb(189, 189, 189)" stroke-width="1px" opacity="0.25"></line><line x1="353.33399925231936" y1="0" x2="353.33399925231936" y2="376.55199909210205" fill="rgb(0, 0, 0)" stroke="rgb(189, 189, 189)" stroke-width="1px" opacity="0.25"></line><line x1="403.8102848597935" y1="0" x2="403.8102848597935" y2="376.55199909210205" fill="rgb(0, 0, 0)" stroke="rgb(189, 189, 189)" stroke-width="1px" opacity="0.25"></line><line x1="454.2865704672678" y1="0" x2="454.2865704672678" y2="376.55199909210205" fill="rgb(0, 0, 0)" stroke="rgb(189, 189, 189)" stroke-width="1px" opacity="0.25"></line><line x1="504.76285607474193" y1="0" x2="504.76285607474193" y2="376.55199909210205" fill="rgb(0, 0, 0)" stroke="rgb(189, 189, 189)" stroke-width="1px" opacity="0.25"></line><line x1="555.2391416822161" y1="0" x2="555.2391416822161" y2="376.55199909210205" fill="rgb(0, 0, 0)" stroke="rgb(189, 189, 189)" stroke-width="1px" opacity="0.25"></line><line x1="605.7154272896903" y1="0" x2="605.7154272896903" y2="376.55199909210205" fill="rgb(0, 0, 0)" stroke="rgb(189, 189, 189)" stroke-width="1px" opacity="0.25"></line><line x1="656.1917128971645" y1="0" x2="656.1917128971645" y2="376.55199909210205" fill="rgb(0, 0, 0)" stroke="rgb(189, 189, 189)" stroke-width="1px" opacity="0.25"></line><line x1="706.6679985046387" y1="0" x2="706.6679985046387" y2="376.55199909210205" fill="rgb(0, 0, 0)" stroke="rgb(189, 189, 189)" stroke-width="1px" opacity="0.25"></line></g><g><line x1="0" y1="376.55199909210205" x2="706.6679985046387" y2="376.55199909210205" fill="rgb(0, 0, 0)" stroke="rgb(189, 189, 189)" stroke-width="1px" opacity="0.25"></line><line x1="0" y1="329.48299920558924" x2="706.6679985046387" y2="329.48299920558924" fill="rgb(0, 0, 0)" stroke="rgb(189, 189, 189)" stroke-width="1px" opacity="0.25"></line><line x1="0" y1="282.41399931907654" x2="706.6679985046387" y2="282.41399931907654" fill="rgb(0, 0, 0)" stroke="rgb(189, 189, 189)" stroke-width="1px" opacity="0.25"></line><line x1="0" y1="235.34499943256378" x2="706.6679985046387" y2="235.34499943256378" fill="rgb(0, 0, 0)" stroke="rgb(189, 189, 189)" stroke-width="1px" opacity="0.25"></line><line x1="0" y1="188.275999546051" x2="706.6679985046387" y2="188.275999546051" fill="rgb(0, 0, 0)" stroke="rgb(189, 189, 189)" stroke-width="1px" opacity="0.25"></line><line x1="0" y1="141.20699965953827" x2="706.6679985046387" y2="141.20699965953827" fill="rgb(0, 0, 0)" stroke="rgb(189, 189, 189)" stroke-width="1px" opacity="0.25"></line><line x1="0" y1="94.13799977302547" x2="706.6679985046387" y2="94.13799977302547" fill="rgb(0, 0, 0)" stroke="rgb(189, 189, 189)" stroke-width="1px" opacity="0.25"></line><line x1="0" y1="47.0689998865128" x2="706.6679985046387" y2="47.0689998865128" fill="rgb(0, 0, 0)" stroke="rgb(189, 189, 189)" stroke-width="1px" opacity="0.25"></line><line x1="0" y1="0" x2="706.6679985046387" y2="0" fill="rgb(0, 0, 0)" stroke="rgb(189, 189, 189)" stroke-width="1px" opacity="0.25"></line></g></g></g><g><g><line x1="0" y1="941.3799977302551" x2="706.6679985046387" y2="941.3799977302551" fill="rgb(0, 0, 0)" stroke="rgb(153, 153, 153)" stroke-width="1.5px"></line></g></g><g><g><line x1="50.47628560747419" y1="0" x2="50.47628560747419" y2="376.55199909210205" fill="rgb(0, 0, 0)" stroke="rgb(153, 153, 153)" stroke-width="1.5px"></line></g></g><g><g><g><g><g><path style="fill: none;" stroke="rgb(0, 119, 187)" stroke-width="2px" d="M50.47628560747419,347.1673497591404L60.571542728969035,324.30272084603007L70.66679985046387,282.3246824335821L80.76205697195871,335.10985077049656L90.85731409345354,259.995909944942L100.95257121494838,203.45952219425484L111.04782833644323,75.02461271793607L121.14308545793807,112.53686296628373L131.2383425794329,76.18570978511528L141.33359970092775,96.81747267148566L151.42885682242257,69.30845548965848L161.52411394391743,99.22893880284221L171.61937106541225,69.48705559427509L181.71462818690708,76.36430988973189L191.80988530840193,74.39937207522703L201.90514242989676,81.09802626606722L212.0003995513916,58.32266934995502L222.09565667288646,59.483766417134234L232.1909137943813,45.55065772160404L242.28617091587614,78.5079039194737L252.38142803737097,52.07065569720726L262.4766851588658,53.0530965491495L272.57194228036064,86.99278359896141L282.6671994018555,109.76814051507361L292.76245652335035,76.0963816774968L302.85771364484515,41.531453984975855L312.95297076634,44.65748886665992L323.04822788783486,42.51395094753846L333.14348500932965,153.08587609931735L343.2387421308245,57.16157228277581L353.33399925231936,42.69255105215507L363.42925637381416,54.83937814841738L373.52451349530907,49.1232209201398L383.61977061680386,49.30187713537677L393.7150277382987,48.14078006819756L403.8102848597935,64.57473911332315L413.9055419812884,43.764320011715796L424.0007991027832,46.17584225369271L434.0960562242781,40.99559756050567L444.1913133457729,64.0388265782326L454.2865704672678,41.710110200212824L464.3818275887626,39.923828600944944L474.4770847102574,45.55065772160404L484.5723418317523,83.59882050504226L494.6675989532471,61.80596055149266L504.76285607474193,44.121632442189735L514.8581131962368,40.8169413452687L524.9533703177316,37.69090646358464L535.0486274392265,37.958890786440094L545.1438845607213,37.780234571203124L555.2391416822161,110.66125325939737L565.334398803711,41.17419766512228L575.4296559252058,44.30023254680634L585.5249130467007,45.461329613985555L595.6201701681955,67.16486145991666L605.7154272896903,49.30187713537677L615.8106844111852,42.78187915977355L625.90594153268,57.87614103310332L636.0011986541749,54.392849831565684L646.0964557756697,75.47114103478776L656.1917128971645,61.53803233925757L666.2869700186593,73.23827500804782" fill="none"></path></g><g><path style="fill: none;" stroke="rgb(255, 112, 67)" stroke-width="2px" d="M50.47628560747419,66.48014355962246L60.571542728969035,62.72886803522937L70.66679985046387,61.95482202731668L80.76205697195871,56.327992906657585L90.85731409345354,49.212549027758286L100.95257121494838,48.23010817581604L111.04782833644323,42.0673665200664L121.14308545793807,43.2582022160382L131.2383425794329,39.80470575391351L141.33359970092775,46.02698077786869L151.42885682242257,40.638341240652096L161.52411394391743,36.82753234805347L171.61937106541225,40.638341240652096L181.71462818690708,39.745172385707974L191.80988530840193,40.191756813180035L201.90514242989676,37.98862941523268L212.0003995513916,35.16031748519666L222.09565667288646,33.254969149517706L232.1909137943813,33.73129220578235L242.28617091587614,35.10078411699112L252.38142803737097,30.90298027574633L262.4766851588658,30.962513643951866L272.57194228036064,31.260236595599906L282.6671994018555,29.86100605559855L292.76245652335035,34.80306116534308L302.85771364484515,29.741883208567117L312.95297076634,31.31976996380544L323.04822788783486,28.908303832448894L333.14348500932965,32.332005555160634L343.2387421308245,27.687673397064145L353.33399925231936,28.074668345710307L363.42925637381416,30.069400899628107L373.52451349530907,31.0816364909833L383.61977061680386,28.64031950959344L393.7150277382987,28.461719404976833L403.8102848597935,28.074668345710307L413.9055419812884,39.47724417347288L424.0007991027832,30.664790692303825L434.0960562242781,27.479222442414226L444.1913133457729,26.258592007029478L454.2865704672678,30.515929216479805L464.3818275887626,29.26556015230247L474.4770847102574,31.528164807834997L484.5723418317523,29.86100605559855L494.6675989532471,35.60690191266872L504.76285607474193,28.134201713915843L514.8581131962368,28.3425965579454L524.9533703177316,26.764709802707074L535.0486274392265,25.871597058383315L545.1438845607213,22.566905961462282L555.2391416822161,27.211294230179135L565.334398803711,33.43356925413431L575.4296559252058,33.254969149517706L585.5249130467007,28.997575829447015L595.6201701681955,24.531843775967133L605.7154272896903,26.139525270618407L615.8106844111852,25.871597058383315L625.90594153268,28.759442356624874L636.0011986541749,32.15340545054403L646.0964557756697,33.67175883757682L656.1917128971645,28.551047512595318L666.2869700186593,36.589398875231325" fill="none"></path></g></g></g></g></g></g><g transform="translate(51, 376)" clip-path="url(#clip_1)"><clipPath id="clip_1"><rect width="706" height="23"></rect></clipPath><g><g><line x1="0" y1="0" x2="0" y2="5" style="visibility: inherit;" fill="rgb(0, 0, 0)" stroke="rgb(204, 204, 204)" stroke-width="1px"></line><line x1="50.47628560747419" y1="0" x2="50.47628560747419" y2="5" style="visibility: inherit;" fill="rgb(0, 0, 0)" stroke="rgb(204, 204, 204)" stroke-width="1px"></line><line x1="100.95257121494838" y1="0" x2="100.95257121494838" y2="5" style="visibility: inherit;" fill="rgb(0, 0, 0)" stroke="rgb(204, 204, 204)" stroke-width="1px"></line><line x1="151.42885682242257" y1="0" x2="151.42885682242257" y2="5" style="visibility: inherit;" fill="rgb(0, 0, 0)" stroke="rgb(204, 204, 204)" stroke-width="1px"></line><line x1="201.90514242989676" y1="0" x2="201.90514242989676" y2="5" style="visibility: inherit;" fill="rgb(0, 0, 0)" stroke="rgb(204, 204, 204)" stroke-width="1px"></line><line x1="252.38142803737097" y1="0" x2="252.38142803737097" y2="5" style="visibility: inherit;" fill="rgb(0, 0, 0)" stroke="rgb(204, 204, 204)" stroke-width="1px"></line><line x1="302.85771364484515" y1="0" x2="302.85771364484515" y2="5" style="visibility: inherit;" fill="rgb(0, 0, 0)" stroke="rgb(204, 204, 204)" stroke-width="1px"></line><line x1="353.33399925231936" y1="0" x2="353.33399925231936" y2="5" style="visibility: inherit;" fill="rgb(0, 0, 0)" stroke="rgb(204, 204, 204)" stroke-width="1px"></line><line x1="403.8102848597935" y1="0" x2="403.8102848597935" y2="5" style="visibility: inherit;" fill="rgb(0, 0, 0)" stroke="rgb(204, 204, 204)" stroke-width="1px"></line><line x1="454.2865704672678" y1="0" x2="454.2865704672678" y2="5" style="visibility: inherit;" fill="rgb(0, 0, 0)" stroke="rgb(204, 204, 204)" stroke-width="1px"></line><line x1="504.76285607474193" y1="0" x2="504.76285607474193" y2="5" style="visibility: inherit;" fill="rgb(0, 0, 0)" stroke="rgb(204, 204, 204)" stroke-width="1px"></line><line x1="555.2391416822161" y1="0" x2="555.2391416822161" y2="5" style="visibility: inherit;" fill="rgb(0, 0, 0)" stroke="rgb(204, 204, 204)" stroke-width="1px"></line><line x1="605.7154272896903" y1="0" x2="605.7154272896903" y2="5" style="visibility: inherit;" fill="rgb(0, 0, 0)" stroke="rgb(204, 204, 204)" stroke-width="1px"></line><line x1="656.1917128971645" y1="0" x2="656.1917128971645" y2="5" style="visibility: inherit;" fill="rgb(0, 0, 0)" stroke="rgb(204, 204, 204)" stroke-width="1px"></line><line x1="706.6679985046387" y1="0" x2="706.6679985046387" y2="5" style="visibility: inherit;" fill="rgb(0, 0, 0)" stroke="rgb(204, 204, 204)" stroke-width="1px"></line></g><g transform="translate(0, 8)"><text style="text-anchor: middle; visibility: hidden; font-family: Roboto, sans-serif; font-size: 12px; font-weight: 200;" x="0" y="0" dx="0em" dy="0.95em" fill="rgb(255, 255, 255)" stroke="none" stroke-width="1px">-5</text><text style="text-anchor: middle; visibility: inherit; font-family: Roboto, sans-serif; font-size: 12px; font-weight: 200;" x="50.47628560747419" y="0" dx="0em" dy="0.95em" fill="rgb(255, 255, 255)" stroke="none" stroke-width="1px">0</text><text style="text-anchor: middle; visibility: inherit; font-family: Roboto, sans-serif; font-size: 12px; font-weight: 200;" x="100.95257121494838" y="0" dx="0em" dy="0.95em" fill="rgb(255, 255, 255)" stroke="none" stroke-width="1px">5</text><text style="text-anchor: middle; visibility: inherit; font-family: Roboto, sans-serif; font-size: 12px; font-weight: 200;" x="151.42885682242257" y="0" dx="0em" dy="0.95em" fill="rgb(255, 255, 255)" stroke="none" stroke-width="1px">10</text><text style="text-anchor: middle; visibility: inherit; font-family: Roboto, sans-serif; font-size: 12px; font-weight: 200;" x="201.90514242989676" y="0" dx="0em" dy="0.95em" fill="rgb(255, 255, 255)" stroke="none" stroke-width="1px">15</text><text style="text-anchor: middle; visibility: inherit; font-family: Roboto, sans-serif; font-size: 12px; font-weight: 200;" x="252.38142803737097" y="0" dx="0em" dy="0.95em" fill="rgb(255, 255, 255)" stroke="none" stroke-width="1px">20</text><text style="text-anchor: middle; visibility: inherit; font-family: Roboto, sans-serif; font-size: 12px; font-weight: 200;" x="302.85771364484515" y="0" dx="0em" dy="0.95em" fill="rgb(255, 255, 255)" stroke="none" stroke-width="1px">25</text><text style="text-anchor: middle; visibility: inherit; font-family: Roboto, sans-serif; font-size: 12px; font-weight: 200;" x="353.33399925231936" y="0" dx="0em" dy="0.95em" fill="rgb(255, 255, 255)" stroke="none" stroke-width="1px">30</text><text style="text-anchor: middle; visibility: inherit; font-family: Roboto, sans-serif; font-size: 12px; font-weight: 200;" x="403.8102848597935" y="0" dx="0em" dy="0.95em" fill="rgb(255, 255, 255)" stroke="none" stroke-width="1px">35</text><text style="text-anchor: middle; visibility: inherit; font-family: Roboto, sans-serif; font-size: 12px; font-weight: 200;" x="454.2865704672678" y="0" dx="0em" dy="0.95em" fill="rgb(255, 255, 255)" stroke="none" stroke-width="1px">40</text><text style="text-anchor: middle; visibility: inherit; font-family: Roboto, sans-serif; font-size: 12px; font-weight: 200;" x="504.76285607474193" y="0" dx="0em" dy="0.95em" fill="rgb(255, 255, 255)" stroke="none" stroke-width="1px">45</text><text style="text-anchor: middle; visibility: inherit; font-family: Roboto, sans-serif; font-size: 12px; font-weight: 200;" x="555.2391416822161" y="0" dx="0em" dy="0.95em" fill="rgb(255, 255, 255)" stroke="none" stroke-width="1px">50</text><text style="text-anchor: middle; visibility: inherit; font-family: Roboto, sans-serif; font-size: 12px; font-weight: 200;" x="605.7154272896903" y="0" dx="0em" dy="0.95em" fill="rgb(255, 255, 255)" stroke="none" stroke-width="1px">55</text><text style="text-anchor: middle; visibility: inherit; font-family: Roboto, sans-serif; font-size: 12px; font-weight: 200;" x="656.1917128971645" y="0" dx="0em" dy="0.95em" fill="rgb(255, 255, 255)" stroke="none" stroke-width="1px">60</text><text style="text-anchor: middle; visibility: hidden; font-family: Roboto, sans-serif; font-size: 12px; font-weight: 200;" x="706.6679985046387" y="0" dx="0em" dy="0.95em" fill="rgb(255, 255, 255)" stroke="none" stroke-width="1px">65</text></g><line x1="0" y1="0" x2="706.6679985046387" y2="0" fill="rgb(0, 0, 0)" stroke="rgb(204, 204, 204)" stroke-width="1px"></line></g></g></g></g></svg>